<?xml version="1.0" encoding="UTF-8" standalone="no"?>
<!DOCTYPE svg PUBLIC "-//W3C//DTD SVG 1.1//EN" "http://www.w3.org/Graphics/SVG/1.1/DTD/svg11.dtd">
<svg width="8000px" height="4500px" version="1.1" xmlns="http://www.w3.org/2000/svg" xmlns:xlink="http://www.w3.org/1999/xlink" xml:space="preserve" xmlns:serif="http://www.serif.com/" style="fill-rule:evenodd;clip-rule:evenodd;stroke-linejoin:round;stroke-miterlimit:2;">
    <g id="Ebene-1" serif:id="Ebene 1">
        <path d="M1986.61,631.744C2088.73,873.516 2193.77,1114.05 2301.69,1353.29C2312.18,1376.54 2346.39,1356.38 2335.96,1333.26C2228.04,1094.02 2123,853.486 2020.88,611.714C2010.97,588.267 1976.77,608.472 1986.61,631.744" style="fill:rgb(227,49,29);fill-rule:nonzero;"/>
        <path d="M1854.51,486.166C1855.7,530.537 1856.9,574.911 1858.1,619.282C1858.42,630.938 1867.01,637.856 1877.95,639.126C1912,643.079 1946.14,646.075 1980.38,647.881C2013.25,649.615 2050.55,654.564 2083.22,649.952C2112.74,645.781 2105.94,618.207 2104.34,595.605L2097.35,496.795C2095.58,471.776 2095.31,445.372 2064.16,442.752C2034.16,440.228 2001.53,447.328 1971.3,448.42C1953.65,449.055 1935.99,449.332 1918.33,449.245C1905.32,449.182 1891.31,447.082 1878.5,449.479C1853.97,454.083 1845.67,483.48 1867.96,497.398C1889.69,510.967 1909.63,476.641 1887.99,463.128C1886.98,462.497 1885.97,461.862 1884.95,461.231C1887.99,465.184 1891.03,469.137 1894.07,473.089C1893.85,471.843 1893.63,470.597 1893.4,469.351C1892.74,474.447 1892.07,479.547 1891.4,484.642C1886.65,488.079 1886.8,489.377 1891.84,488.536C1895.62,488.635 1899.4,488.718 1903.19,488.774C1910.76,488.897 1918.33,488.952 1925.9,488.945C1938.51,488.933 1951.13,488.734 1963.73,488.357C1992.76,487.488 2021.62,485.254 2050.55,482.852C2053.43,482.527 2056.31,482.309 2059.2,482.198C2058.32,481.995 2057.45,481.793 2056.58,481.594C2058.63,484.587 2057.93,500.704 2058.19,504.395C2059.18,518.329 2060.17,532.263 2061.16,546.198C2062.14,560.136 2063.12,574.066 2064.11,588.004C2064.65,595.605 2065.19,603.205 2065.73,610.805C2065.91,613.337 2066.08,615.873 2066.26,618.405C2066.16,628.124 2066.87,628.533 2068.42,619.623C2072.37,616.583 2076.32,613.547 2080.28,610.507C2065.2,613.519 2045.39,610.364 2029.87,610.031C2013.37,609.674 1996.87,609.063 1980.38,608.193C1946.14,606.388 1912,603.391 1877.95,599.438L1897.79,619.282C1896.59,574.911 1895.39,530.537 1894.19,486.166C1893.5,460.679 1853.82,460.576 1854.51,486.166" style="fill:rgb(227,49,29);fill-rule:nonzero;"/>
        <path d="M2332.86,1357.31C2485.47,1202.02 2637.81,1046.43 2791.88,892.568C2809.97,874.498 2781.92,846.427 2763.82,864.505C2609.75,1018.37 2457.41,1173.95 2304.79,1329.25C2286.88,1347.48 2314.91,1375.56 2332.86,1357.31" style="fill:rgb(227,49,29);fill-rule:nonzero;"/>
        <path d="M2705.48,756.839C2709.66,787.609 2713.84,818.379 2718.01,849.149C2721.64,875.838 2730.11,888.161 2758.42,889.38C2787.09,890.606 2816.18,888.614 2844.62,885.078C2855.22,883.76 2867.68,880.434 2876.79,882.034C2888.24,884.054 2895.02,887.586 2907,882.799C2914.3,879.882 2922.76,872.77 2921.57,863.666C2915.59,818.303 2911.01,772.806 2907.82,727.161C2907.04,716.057 2899.33,707.869 2887.97,707.318C2832.33,704.631 2776.76,706.333 2721.39,712.437C2696.28,715.207 2695.99,754.927 2721.39,752.129C2776.76,746.021 2832.33,744.318 2887.97,747.005C2881.36,740.389 2874.74,733.777 2868.13,727.161C2871.32,772.806 2875.9,818.303 2881.88,863.666C2886.74,857.288 2891.6,850.911 2896.45,844.533C2890.33,846.978 2883.88,841.969 2876.79,841.652C2866.09,841.171 2855.23,844.021 2844.62,845.39C2822.28,848.271 2799.72,849.696 2777.2,849.867C2772.35,849.903 2766.97,849.16 2762.17,849.784C2753.83,850.867 2755.64,847.24 2758.37,853.982C2754.5,844.398 2755.08,829.71 2753.67,819.367L2743.75,746.291C2740.33,721.097 2702.08,731.825 2705.48,756.839" style="fill:rgb(227,49,29);fill-rule:nonzero;"/>
        <path d="M2318.82,1323.43C2054.58,1344.17 1790.33,1364.9 1526.08,1385.63C1451.15,1391.51 1376.21,1397.39 1301.28,1403.27C1275.98,1405.26 1275.77,1444.96 1301.28,1442.96C1565.53,1422.23 1829.77,1401.49 2094.01,1380.76C2168.95,1374.88 2243.89,1369 2318.82,1363.12C2344.12,1361.14 2344.33,1321.43 2318.82,1323.43" style="fill:rgb(227,49,29);fill-rule:nonzero;"/>
        <path d="M1272.07,1312.04C1276.26,1360.2 1281.25,1408.27 1287.04,1456.25C1291.89,1449.87 1296.75,1443.5 1301.6,1437.12C1284.81,1443.29 1261.26,1436.92 1243.63,1435.98C1222.71,1434.85 1201.77,1434.27 1180.82,1434.23C1173.94,1434.22 1120.19,1430.93 1118,1435.74C1123.1,1450.02 1124.89,1451.34 1123.35,1439.71C1123.15,1434.64 1123,1429.57 1122.9,1424.5C1122.72,1415.63 1122.7,1406.76 1122.82,1397.89C1123.07,1379.21 1126.72,1359.44 1125.62,1340.9C1124.9,1328.66 1126.42,1332.12 1139.01,1331.26C1149.19,1330.57 1159.38,1330.24 1169.58,1329.97C1211.11,1328.88 1252.67,1328.35 1294.2,1327.55C1319.71,1327.06 1319.79,1287.37 1294.2,1287.87C1238.97,1288.92 1182.6,1286.9 1127.6,1292.51C1108.53,1294.44 1092.35,1299.55 1088.09,1320.46C1082.79,1346.48 1083.32,1375.23 1083.08,1401.69C1082.92,1419.65 1077.92,1450.19 1090.22,1465.23C1103.55,1481.5 1131.36,1474.69 1149.39,1474.27C1178.19,1473.58 1207.01,1473.92 1235.79,1475.27C1259.82,1476.4 1289.05,1483.88 1312.15,1475.38C1319.58,1472.65 1327.8,1465.23 1326.72,1456.25C1320.94,1408.27 1315.95,1360.2 1311.76,1312.04C1309.56,1286.79 1269.85,1286.56 1272.07,1312.04" style="fill:rgb(227,49,29);fill-rule:nonzero;"/>
        <path d="M2309.18,1343.16C2205.02,1513.61 2104.58,1686.3 2007.98,1861.15C1995.62,1883.52 2029.89,1903.56 2042.25,1881.18C2138.85,1706.33 2239.29,1533.64 2343.45,1363.19C2356.81,1341.34 2322.49,1321.38 2309.18,1343.16" style="fill:rgb(227,49,29);fill-rule:nonzero;"/>
        <path d="M1920.09,1897.48C1989.09,1901.01 2058.07,1898.85 2126.72,1891.01C2120.1,1884.39 2113.49,1877.78 2106.88,1871.16C2109.98,1896.91 2106.87,1923.09 2109.26,1949.01C2111.57,1973.96 2115.73,1998.7 2119.92,2023.39C2126.3,2015.01 2132.68,2006.64 2139.06,1998.27C2080.11,1999.89 2021.13,2002.19 1962.15,2001.75C1955.76,2001.71 1949.36,2001.63 1942.97,2001.5C1937.85,2001.4 1932.73,2001.28 1927.61,2001.13C1930.03,2003.31 1932.45,2005.48 1934.87,2007.66C1937,2006.87 1934.58,1971.05 1934.56,1966.07C1934.45,1937.32 1931.95,1907.52 1939.87,1879.58C1946.86,1854.96 1908.57,1844.46 1901.6,1869.03C1892.01,1902.87 1894.77,1938.96 1894.91,1973.75C1895,1998.23 1889.47,2033.67 1921.03,2040.15C1937.62,2043.56 1956.8,2041.48 1973.66,2041.49C1991.58,2041.51 2009.49,2041.26 2027.4,2040.9C2064.62,2040.15 2101.84,2038.98 2139.06,2037.96C2152.93,2037.58 2160.37,2025.64 2158.2,2012.84C2154.18,1989.23 2150.13,1965.6 2148.33,1941.69C2146.56,1918.21 2149.38,1894.5 2146.56,1871.16C2145.39,1861.48 2138.37,1849.99 2126.72,1851.32C2058.07,1859.16 1989.09,1861.32 1920.09,1857.79C1894.56,1856.48 1894.63,1896.17 1920.09,1897.48" style="fill:rgb(227,49,29);fill-rule:nonzero;"/>
        <path d="M2317.24,1352.9C2454.73,1573.25 2588.37,1795.98 2718.18,2020.94C2730.94,2043.05 2765.25,2023.09 2752.45,2000.9C2622.64,1775.95 2489,1553.22 2351.51,1332.87C2338.01,1311.24 2303.66,1331.15 2317.24,1352.9" style="fill:rgb(227,49,29);fill-rule:nonzero;"/>
        <path d="M2991.48,1974.6L2738.17,1984.49C2728.57,1984.86 2722.57,1990.75 2720.2,1997.88C2717.29,2001.02 2715.44,2005.37 2715.47,2010.92C2715.67,2048.4 2713.78,2086.62 2716.18,2124.03C2717.88,2150.53 2730.11,2173.75 2759.36,2175.63C2794.78,2177.9 2832.13,2173.01 2867.58,2171.08C2905.8,2168.99 2944,2166.54 2982.18,2163.79C2991.77,2163.1 3003.53,2155.2 3002.02,2143.94C2995.51,2095.31 2998.15,2047.21 3010.62,1999.72C3013.72,1987.9 3004.91,1974.59 2992.2,1974.59C2991.96,1974.59 2991.72,1974.59 2991.48,1974.6ZM2966.38,2015.27C2959.27,2051.67 2957.14,2088.64 2960.32,2125.64C2907.78,2129.26 2855.2,2132.27 2802.58,2134.61C2792.91,2135.03 2770.61,2140.2 2762.28,2136.16C2752.06,2131.21 2755.71,2113.59 2755.66,2103.48C2755.51,2076.82 2755.37,2050.17 2755.22,2023.51L2966.38,2015.27Z" style="fill:url(#_Linear1);fill-rule:nonzero;"/>
        <path d="M2982.18,2163.79C3219.99,2173.04 3457.69,2184.83 3695.25,2199.2C3720.76,2200.74 3720.67,2161.05 3695.25,2159.51C3457.69,2145.14 3219.99,2133.35 2982.18,2124.1C2956.64,2123.11 2956.69,2162.8 2982.18,2163.79" style="fill:rgb(250,213,42);fill-rule:nonzero;"/>
        <path d="M3373.59,1208.82C3386.46,1216.57 3389.13,1239.19 3393.26,1252.24C3399.6,1272.32 3405.95,1292.4 3412.29,1312.49C3424.99,1352.65 3437.67,1392.82 3450.37,1432.99C3474.96,1510.81 3499.55,1588.64 3524.14,1666.46C3574.12,1824.62 3624.09,1982.78 3674.06,2140.94C3681.73,2165.2 3720.06,2154.84 3712.33,2130.39C3631.03,1873.06 3549.72,1615.74 3468.41,1358.42C3456.91,1322.02 3445.4,1285.62 3433.9,1249.22C3425.31,1222.04 3419.87,1190.35 3393.62,1174.56C3371.69,1161.35 3351.71,1195.65 3373.59,1208.82" style="fill:rgb(250,213,42);fill-rule:nonzero;"/>
        <path d="M3724.92,2183.85C3774.45,2070.68 3846.19,1975.12 3921.46,1878.17C3995.4,1782.93 4063.85,1683.69 4126.18,1580.47C4139.41,1558.55 4105.11,1538.58 4091.91,1560.44C4028.73,1665.06 3959.34,1765.74 3884.1,1862.05C3809.63,1957.35 3739.44,2052.37 3690.65,2163.82C3680.51,2187 3714.69,2207.22 3724.92,2183.85" style="fill:rgb(250,213,42);fill-rule:nonzero;"/>
        <path d="M3689.51,2205.18C4037.96,2125.51 4389.15,2057.94 4742.31,2002.79C4842.22,1987.19 4942.29,1972.6 5042.49,1958.96C5067.68,1955.53 5056.95,1917.28 5031.94,1920.69C4677.59,1968.95 4324.93,2029.42 3974.81,2102.27C3875.98,2122.84 3777.36,2144.41 3678.96,2166.91C3654.07,2172.6 3664.6,2210.87 3689.51,2205.18" style="fill:rgb(250,213,42);fill-rule:nonzero;"/>
        <path d="M3766.03,2154.53C3765.47,2154.01 3764.92,2153.49 3764.36,2152.97C3766.06,2159.41 3767.76,2165.84 3769.46,2172.28C3769.7,2171.41 3769.93,2170.55 3770.16,2169.68C3767.12,2173.63 3764.08,2177.59 3761.04,2181.54C3761.85,2181.07 3762.66,2180.6 3763.47,2180.13L3748.18,2182.13C3747.68,2181.94 3754.03,2192.89 3754.83,2194.01L3766.29,2210.01C3773.93,2220.67 3781.57,2231.34 3789.21,2242.01C3804.48,2263.34 3819.76,2284.67 3835.04,2306C3866.36,2349.74 3897.68,2393.47 3929,2437.2C3990.88,2523.59 4052.76,2609.98 4114.63,2696.38C4129.38,2716.97 4163.81,2697.17 4148.9,2676.35C4077.09,2576.09 4005.29,2475.83 3933.48,2375.57C3898.34,2326.51 3863.2,2277.44 3828.06,2228.38C3810.56,2203.95 3794.53,2176.36 3774.54,2153.96C3761.03,2138.82 3736.93,2140.34 3731.2,2161.72C3729.41,2168.39 3731.15,2176.23 3736.3,2181.03C3736.86,2181.55 3737.42,2182.07 3737.97,2182.59C3756.64,2199.99 3784.76,2171.99 3766.03,2154.53" style="fill:rgb(250,213,42);fill-rule:nonzero;"/>
        <path d="M3726.04,2153.96C3615.43,2418.59 3500.66,2681.47 3381.79,2942.5C3348.36,3015.93 3314.59,3089.21 3280.52,3162.34C3269.8,3185.35 3304,3205.53 3314.78,3182.37C3437.24,2919.51 3555.62,2654.75 3669.73,2388.15C3701.58,2313.74 3733.1,2239.19 3764.31,2164.51C3774.15,2140.97 3735.76,2130.7 3726.04,2153.96" style="fill:rgb(250,213,42);fill-rule:nonzero;"/>
        <path d="M3986.31,1307.66C4001.55,1382.39 4010.04,1458.2 4011.22,1534.48C4011.62,1560.15 4011.95,1591.89 4046.26,1591.53C4082.68,1591.14 4121.11,1581.42 4157.17,1576.25C4194.5,1570.89 4231.86,1565.63 4269.11,1559.69C4297.6,1555.14 4313.56,1538.9 4307.55,1509.15C4299.87,1471.03 4289.73,1433.23 4280.85,1395.36C4272.77,1360.95 4267.8,1323.43 4255.82,1290.19C4242.4,1252.96 4201.52,1263.36 4170.4,1265.88C4126.61,1269.43 4082.82,1272.97 4039.03,1276.52C4013.75,1278.56 4013.53,1318.27 4039.03,1316.2C4077.67,1313.08 4116.31,1309.95 4154.94,1306.82C4165.25,1305.99 4175.55,1305.15 4185.85,1304.32C4192.33,1303.79 4208.97,1299.3 4214.76,1302.1C4223.58,1306.38 4226.01,1335.34 4228.33,1345.23L4255.04,1459.01C4259.38,1477.48 4266.41,1497.07 4268.4,1515.91C4267.99,1519.83 4269.22,1520.77 4272.1,1518.74C4268.93,1519.68 4265.69,1520.38 4262.41,1520.83C4252.22,1522.77 4241.81,1523.96 4231.55,1525.5C4192.96,1531.3 4154.35,1536.92 4115.71,1542.38C4097.68,1544.93 4079.65,1547.54 4061.6,1549.91C4056.5,1550.67 4051.39,1551.32 4046.26,1551.84C4050.46,1558.76 4052.06,1559.35 4051.06,1553.62C4054.29,1549.64 4050.82,1528.37 4050.69,1522.99C4048.81,1447.09 4039.74,1371.48 4024.58,1297.11C4019.47,1272.11 3981.21,1282.69 3986.31,1307.66" style="fill:rgb(250,213,42);fill-rule:nonzero;"/>
        <path d="M4483.58,1012.46C4762.23,980.368 5040.89,948.273 5319.55,916.181C5344.62,913.292 5344.91,873.573 5319.55,876.494C5040.89,908.585 4762.23,940.68 4483.58,972.772C4458.5,975.661 4458.21,1015.38 4483.58,1012.46" style="fill:rgb(33,109,180);fill-rule:nonzero;"/>
        <path d="M5336.64,880.576C5295.74,938.738 5293.61,1016.35 5284.35,1084.39C5273.39,1164.87 5261.71,1245.24 5249.32,1325.51C5224.17,1488.31 5196.02,1650.63 5164.99,1812.42C5160.21,1837.37 5198.45,1848.06 5203.27,1822.97C5233.8,1663.76 5261.55,1504.02 5286.38,1343.82C5298.83,1263.56 5310.55,1183.2 5321.55,1102.73C5330.64,1036.27 5331,957.363 5370.91,900.606C5385.63,879.671 5351.24,859.819 5336.64,880.576" style="fill:rgb(33,109,180);fill-rule:nonzero;"/>
        <path d="M5323.23,872.282C5333.46,902.468 5362.63,911.664 5389.97,921.875C5426.78,935.615 5463.61,949.291 5500.47,962.896C5575.45,990.562 5650.53,1017.94 5725.72,1045.02C5877.4,1099.65 6029.52,1153.07 6182.05,1205.32C6206.26,1213.62 6216.66,1175.3 6192.6,1167.05C6049.99,1118.19 5907.73,1068.32 5765.86,1017.39C5695.57,992.154 5625.38,966.663 5555.28,940.917C5520.85,928.273 5486.45,915.565 5452.07,902.798C5434.88,896.416 5417.7,890.018 5400.52,883.605C5389.58,879.517 5365.86,874.588 5361.5,861.733C5353.35,837.674 5315.01,847.997 5323.23,872.282" style="fill:rgb(33,109,180);fill-rule:nonzero;"/>
        <path d="M5369.45,910.167C5581.71,1131.39 5793.96,1352.62 6006.22,1573.85C6066.61,1636.79 6126.99,1699.72 6187.37,1762.65C6205.09,1781.12 6233.13,1753.03 6215.43,1734.59C6003.18,1513.37 5790.92,1292.14 5578.67,1070.91L5397.51,882.104C5379.8,863.638 5351.76,891.728 5369.45,910.167" style="fill:rgb(33,109,180);fill-rule:nonzero;"/>
        <path d="M6179.22,1758.05C6180.56,1795.79 6183.11,1833.46 6187.14,1871.01C6188.94,1887.8 6191.04,1904.55 6193.35,1921.28C6195.42,1936.31 6196.17,1953.28 6203.67,1966.88C6220.56,1997.48 6255.58,1988.73 6284.07,1984.84C6321.04,1979.79 6358.01,1974.75 6394.98,1969.7C6414.1,1967.09 6433.22,1964.47 6452.34,1961.86C6466.9,1959.88 6485.71,1960.5 6495.74,1947.79C6505.14,1935.89 6502.04,1919.85 6501.35,1905.88C6500.33,1885.17 6499.31,1864.46 6498.29,1843.75C6496.44,1806.22 6494.66,1768.68 6492.75,1731.14C6491.3,1702.72 6485.53,1673.62 6453.25,1666.57C6436.28,1662.86 6418.58,1667.01 6401.85,1669.99C6380.48,1673.81 6359.12,1677.62 6337.75,1681.43C6295.03,1689.06 6252.3,1696.68 6209.57,1704.31C6184.47,1708.78 6195.11,1747.04 6220.12,1742.57C6257.82,1735.85 6295.53,1729.12 6333.23,1722.39C6350.82,1719.25 6368.41,1716.11 6386,1712.98C6402.16,1710.09 6419.82,1704.52 6436.3,1704.81C6447.46,1705.01 6450.09,1706.95 6452.34,1717.87C6454.2,1726.94 6453.37,1737.42 6453.82,1746.67C6454.72,1764.8 6455.61,1782.92 6456.5,1801.04C6458.35,1838.58 6460.2,1876.11 6462.05,1913.65C6462.24,1917.53 6462.43,1921.42 6462.62,1925.3C6466.81,1919.48 6464.97,1918.21 6457.09,1921.51C6448.32,1920.18 6435.35,1924.47 6426.5,1925.68C6408.65,1928.12 6390.8,1930.56 6372.95,1932.99C6335.99,1938.04 6299.03,1943.23 6262.05,1948.14C6255.05,1949.06 6243.39,1953.37 6237.94,1946.85C6234.56,1942.8 6234.46,1930.47 6233.74,1925.7C6231.01,1907.53 6228.78,1889.28 6226.83,1871.01C6222.8,1833.46 6220.25,1795.79 6218.9,1758.05C6217.99,1732.59 6178.31,1732.47 6179.22,1758.05" style="fill:rgb(33,109,180);fill-rule:nonzero;"/>
        <path d="M5958.19,2326.45C5892.25,2616.02 5813.34,2902.53 5721.83,3185.07C5713.95,3209.43 5752.25,3219.86 5760.11,3195.62C5851.61,2913.08 5930.52,2626.57 5996.46,2337C6002.12,2312.13 5963.87,2301.51 5958.19,2326.45" style="fill:rgb(63,169,56);fill-rule:nonzero;"/>
        <path d="M5727.78,3228.36C5946.97,3448.74 6146.48,3688.17 6322.61,3944.31C6336.99,3965.22 6371.4,3945.39 6356.88,3924.27C6218.89,3723.6 6066.86,3532.61 5902.12,3353.23C5854.4,3301.27 5805.59,3250.31 5755.85,3200.3C5737.81,3182.16 5709.74,3210.22 5727.78,3228.36" style="fill:rgb(63,169,56);fill-rule:nonzero;"/>
        <path d="M5373.42,879.407C5317.52,751.241 5270.52,619.363 5232.34,484.859C5225.37,460.332 5187.07,470.758 5194.07,495.412C5233.2,633.27 5281.87,768.088 5339.15,899.438C5349.33,922.794 5383.54,902.613 5373.42,879.407" style="fill:rgb(33,109,180);fill-rule:nonzero;"/>
        <path d="M5376.66,906.088C5546.72,726.256 5721.71,551.147 5901.37,380.912C5919.95,363.31 5891.85,335.279 5873.31,352.853C5693.64,523.084 5518.65,698.193 5348.59,878.025C5331.05,896.575 5359.06,924.689 5376.66,906.088" style="fill:rgb(33,109,180);fill-rule:nonzero;"/>
        <path d="M5802.75,215.619C5807.57,271.634 5812.39,327.653 5817.21,383.668C5818.22,395.459 5829.21,407.536 5842.33,402.801C5891.23,385.144 5949.31,388.871 6000.69,385.779C6019.41,384.652 6044.8,387.117 6055.26,367.575C6065.59,348.283 6054.58,317.533 6051.52,297.645C6047.27,270.126 6043.03,242.607 6038.79,215.088C6035.68,194.958 6035.89,170.019 6010.92,165.939C5998.64,163.935 5984.32,167.502 5971.99,168.673L5928.92,172.765C5898.91,175.615 5868.89,178.468 5838.88,181.322C5813.67,183.715 5813.42,223.426 5838.88,221.009L5925.01,212.822C5938.06,211.583 5951.11,210.345 5964.16,209.103C5975.89,207.992 5996.33,202.058 6007.37,206.206C6003.42,203.166 5999.47,200.126 5995.51,197.085C6001.44,206.11 6000.64,226.387 6002.26,236.892L6016.14,326.959C6016.95,332.197 6021.06,343.421 6019.44,348.755C6025.14,344.112 6023.82,342.929 6015.5,345.199C6011.8,345.425 6008.1,345.643 6004.4,345.866C5948.43,349.235 5885.11,345.274 5831.77,364.531C5840.15,370.909 5848.52,377.286 5856.9,383.668C5852.07,327.653 5847.26,271.634 5842.44,215.619C5840.26,190.362 5800.56,190.132 5802.75,215.619" style="fill:rgb(33,109,180);fill-rule:nonzero;"/>
        <path d="M5036.29,319.249C5040.26,359.555 5044.22,399.862 5048.19,440.172C5050.89,467.572 5048.99,507.335 5085.57,509.915C5105.07,511.292 5126.17,507.486 5145.68,506.208C5163.88,505.018 5182.09,503.827 5200.29,502.636C5221.1,501.275 5241.91,499.914 5262.72,498.552C5276.57,497.648 5296.62,499.953 5307.35,488.845C5318.5,477.308 5313.67,459.298 5312.43,445.228L5307.07,384.352C5305.5,366.596 5303.94,348.843 5302.38,331.087C5301.12,316.851 5301.88,301.056 5289.75,291.285C5277.55,281.442 5258.95,281.958 5244.08,280.688C5223.94,278.97 5203.72,278.402 5183.52,278.978C5143.9,280.101 5104.49,285.681 5065.97,294.888C5041.14,300.826 5051.65,339.104 5076.52,333.159C5133.79,319.467 5192.97,314.986 5251.62,321.074C5254.13,321.344 5256.64,321.61 5259.15,321.88C5267.44,322.416 5268.4,322.947 5262.02,323.475C5264.12,328.75 5263.2,336.925 5263.69,342.501L5267.38,384.352C5268.72,399.572 5270.06,414.788 5271.4,430.008C5272.28,439.986 5278.05,460.198 5274.18,469.541C5277.22,465.588 5280.27,461.631 5283.3,457.678C5278.86,460.175 5268.23,458.504 5262.72,458.865C5254.91,459.377 5247.11,459.885 5239.3,460.397C5223.7,461.417 5208.09,462.437 5192.49,463.457C5162.58,465.417 5132.67,467.37 5102.76,469.327C5100.17,469.497 5085.91,468.934 5091.72,473.899C5088.67,471.299 5089.79,459.619 5089.36,455.289C5087.88,440.172 5086.39,425.055 5084.9,409.942C5081.93,379.708 5078.95,349.478 5075.98,319.249C5073.5,294.063 5033.78,293.805 5036.29,319.249" style="fill:rgb(33,109,180);fill-rule:nonzero;"/>
        <path d="M6176.73,1081.05C6174.75,1117.22 6174.54,1153.43 6176.51,1189.61C6177.5,1207.69 6178.96,1225.76 6181.01,1243.75C6182.57,1257.36 6183.68,1269.79 6196.69,1277.13C6209.47,1284.35 6227.14,1281.71 6241.27,1282.19C6259.1,1282.81 6276.91,1283.7 6294.72,1284.87C6331.58,1287.29 6368.32,1290.98 6404.97,1295.69C6419.27,1297.53 6425.64,1281.61 6424.1,1270.57C6419.35,1236.59 6415.66,1202.47 6413,1168.26C6411.7,1151.57 6410.66,1134.85 6409.87,1118.13C6409.27,1105.48 6411.09,1089.8 6403.29,1078.8C6396.73,1069.55 6386.63,1066.97 6375.83,1065.85C6357.6,1063.96 6339.1,1063.37 6320.82,1062.13C6286.76,1059.83 6252.71,1057.52 6218.65,1055.21C6193.16,1053.49 6193.27,1093.18 6218.65,1094.9C6247.47,1096.85 6276.29,1098.8 6305.1,1100.75C6320.82,1101.81 6336.54,1102.88 6352.25,1103.94C6357.53,1104.3 6367.4,1107.22 6371.9,1105.27C6378.53,1106.61 6377.68,1104.46 6369.37,1098.82C6369.5,1102.68 6369.66,1106.55 6369.83,1110.4C6372.29,1167.57 6377.9,1224.47 6385.83,1281.13C6392.21,1272.75 6398.58,1264.38 6404.97,1256.01C6345.57,1248.36 6285.86,1243.58 6225.98,1242.05C6222.16,1241.94 6218.34,1241.86 6214.52,1241.79C6216.58,1242.44 6218.64,1243.09 6220.7,1243.75C6218.65,1236.65 6219.04,1228 6218.39,1220.58C6217.05,1205.11 6216.08,1189.62 6215.48,1174.11C6214.29,1143.08 6214.72,1112.05 6216.42,1081.05C6217.82,1055.53 6178.12,1055.6 6176.73,1081.05" style="fill:rgb(33,109,180);fill-rule:nonzero;"/>
        <path d="M4239.38,887.04C4237.82,929.129 4236.97,971.237 4236.98,1013.35C4236.98,1031.68 4233.25,1055.09 4238.51,1072.88C4243.15,1088.55 4256.65,1092.63 4271.35,1093.31C4356.44,1097.26 4442.79,1089.2 4526.7,1075.39C4537.93,1073.54 4542.28,1060.59 4540.56,1050.98C4533.35,1010.9 4529.54,970.42 4529.38,929.693C4529.26,899.764 4535.01,865.308 4496.08,860.132C4476.74,857.557 4457.78,863.311 4439.04,867.252C4421.43,870.955 4403.67,873.809 4385.76,875.535C4346.28,879.341 4306.66,878.444 4267.31,873.63C4242.02,870.538 4242.24,910.254 4267.31,913.318C4332.17,921.251 4396.78,917.203 4460.49,903.09C4465.24,902.042 4485.36,895.303 4488.65,899.082C4491.49,902.356 4489.87,909.912 4489.79,914.73C4489.52,930.943 4489.8,947.155 4490.64,963.352C4492.34,996.3 4496.45,1029.07 4502.28,1061.53C4506.9,1053.39 4511.52,1045.25 4516.14,1037.12C4444.18,1048.96 4371.33,1054.66 4298.39,1054.12C4291.88,1054.07 4281.57,1051.82 4275.21,1053.73C4263.73,1051.63 4264.34,1054.76 4277.05,1063.12C4276.98,1058.02 4276.91,1052.91 4276.85,1047.81C4276.66,1029.94 4276.62,1012.08 4276.72,994.212C4276.92,958.478 4277.74,922.751 4279.06,887.04C4280.01,861.498 4240.32,861.537 4239.38,887.04" style="fill:rgb(33,109,180);fill-rule:nonzero;"/>
        <path d="M5269.53,1815.55C5250.26,1815.57 5230.99,1815.59 5211.73,1815.61C5171.91,1815.64 5132.1,1815.68 5092.29,1815.72C5083.71,1815.72 5078.01,1820.2 5075.19,1826.15C5066.43,1810.74 5037.57,1813.87 5037.99,1835.72C5038.78,1876.93 5039.58,1918.15 5040.37,1959.37C5040.84,1983.42 5031.12,2031.18 5061.89,2039.46C5080.15,2044.36 5101.23,2044.61 5120,2046.41C5137.66,2048.11 5155.36,2049.44 5173.08,2050.38C5213.62,2052.54 5254.2,2052.6 5294.75,2050.91C5308.02,2050.36 5316.81,2038.72 5313.89,2025.79C5305.59,1989.22 5302.89,1951.89 5306.46,1914.51C5308.33,1895 5313.71,1876.61 5316.96,1857.41C5319.04,1845.08 5317.74,1832.69 5308.28,1823.75C5300.52,1816.41 5290.69,1815.41 5280.69,1815.41C5276.95,1815.41 5273.2,1815.55 5269.53,1815.55ZM5080.9,2003.01L5079.46,1928.46C5078.95,1902.06 5078.45,1875.66 5077.94,1849.26C5081.13,1852.95 5085.91,1855.41 5092.29,1855.4L5269.53,1855.24C5271.54,1855.24 5273.56,1855.24 5275.57,1855.23C5274.1,1861.23 5273.39,1869.76 5272.76,1872.95C5271.34,1880.15 5270.16,1887.39 5269.15,1894.66C5267.05,1909.75 5265.66,1924.89 5265.32,1940.12C5264.78,1964.23 5266.78,1988.28 5270.8,2012.02C5240.76,2012.75 5210.71,2012.5 5180.68,2011.08C5162.95,2010.24 5145.24,2009.02 5127.57,2007.43C5112.82,2006.1 5096.11,2005.89 5080.9,2003.01Z" style="fill:url(#_Linear2);fill-rule:nonzero;"/>
        <path d="M4016.13,2722.08C4096.2,2719.76 4175.88,2712.79 4255.19,2701.7C4246.82,2695.32 4238.45,2688.94 4230.08,2682.56C4234.78,2753.49 4245.05,2823.86 4260.9,2893.16C4269.03,2885.03 4277.17,2876.89 4285.31,2868.75C4213.79,2857.42 4144.09,2885.8 4072.97,2876.44C4059.95,2874.72 4034.08,2871.4 4025.35,2860.2C4016.71,2849.12 4021.48,2823.7 4021.35,2810.49C4020.97,2771.46 4021.93,2732.45 4023.98,2693.47C4025.33,2667.95 3985.64,2668.02 3984.3,2693.47C3981.97,2737.65 3981.07,2781.87 3981.89,2826.1C3982.19,2842.91 3980.34,2862.76 3989.17,2877.9C3997.83,2892.76 4014.02,2900.54 4029.48,2906.4C4109.77,2936.85 4193.12,2894.09 4274.76,2907.02C4289.73,2909.39 4302.79,2898.45 4299.16,2882.61C4284.1,2816.71 4274.24,2750.02 4269.76,2682.56C4268.83,2668.45 4257.9,2661.57 4244.65,2663.43C4168.88,2674.03 4092.59,2680.17 4016.13,2682.39C3990.65,2683.13 3990.54,2722.82 4016.13,2722.08" style="fill:rgb(250,213,42);fill-rule:nonzero;"/>
        <path d="M3185.65,3168.47C3173.51,3163.59 3157.34,3169.3 3158.74,3185.82C3162.64,3231.88 3166.54,3277.95 3170.43,3324.02C3171.35,3334.87 3178.78,3343.65 3190.27,3343.87C3265.57,3345.26 3340.79,3348.8 3415.88,3354.48C3430.21,3355.57 3436.61,3341 3435.02,3329.36C3430.21,3294.05 3425.56,3258.55 3425.4,3222.86C3425.29,3200.94 3435.97,3164.64 3407.59,3155.6C3395.13,3151.63 3379.72,3156.14 3367.14,3157.03C3350.77,3158.2 3334.37,3158.71 3317.96,3158.59C3281.84,3158.31 3245.99,3154.66 3210.5,3147.97C3209.06,3147.7 3207.66,3147.57 3206.33,3147.57C3194.08,3147.57 3186.14,3158.26 3185.65,3168.47ZM3198.44,3185.9C3198.93,3186.03 3199.43,3186.14 3199.95,3186.24C3232.67,3192.4 3265.76,3196.52 3299.05,3197.82C3315.44,3198.45 3331.85,3198.45 3348.24,3197.79C3355.81,3197.48 3363.37,3197.04 3370.91,3196.45C3373.7,3196.24 3381.71,3194.41 3387.99,3193.71C3387.75,3202.36 3385.75,3212.23 3385.72,3219.13C3385.67,3232.83 3386.31,3246.52 3387.36,3260.18C3388.71,3277.89 3390.82,3295.53 3393.13,3313.14C3331.65,3308.84 3270.09,3305.98 3208.47,3304.56C3205.13,3265 3201.78,3225.45 3198.44,3185.9Z" style="fill:url(#_Linear3);fill-rule:nonzero;"/>
        <path d="M3171.75,984.18C3177.68,1030.52 3184.74,1076.68 3193.38,1122.59C3197.56,1144.83 3201.33,1167.48 3207.06,1189.37C3211.2,1205.18 3219.68,1220.85 3236.31,1226.09C3254.75,1231.9 3278.32,1225.02 3296.93,1222.8C3320.2,1220.03 3343.47,1217.25 3366.74,1214.47C3415.87,1208.62 3465,1202.76 3514.12,1196.9C3526.71,1195.4 3536.95,1185.43 3533.26,1171.79C3521.6,1128.72 3509.93,1085.66 3498.26,1042.6C3492.54,1021.47 3487.86,999.674 3480.93,978.925C3475.76,963.403 3466.66,952.339 3450.46,947.794C3415.04,937.865 3374.42,939.853 3338.56,945.556C3296.36,952.267 3256.63,972.143 3213.22,969.48C3187.71,967.92 3187.8,1007.61 3213.22,1009.17C3249.49,1011.39 3282.94,999.789 3317.5,990.681C3350.62,981.949 3384.6,978.767 3418.72,982.565C3426.84,983.469 3436.47,983.239 3441.72,989.208C3446.82,995.003 3447.73,1007.85 3449.7,1015.15C3454.51,1032.88 3459.31,1050.61 3464.11,1068.35C3474.4,1106.34 3484.7,1144.34 3494.99,1182.34C3501.37,1173.96 3507.74,1165.59 3514.12,1157.22C3433.97,1166.77 3353.81,1176.33 3273.66,1185.89C3267.53,1186.62 3253.18,1191.26 3247.71,1186.59C3243.35,1182.88 3242.54,1166.29 3241.47,1161.18C3237.75,1143.58 3234.23,1125.94 3230.94,1108.26C3223.26,1067.09 3216.75,1025.72 3211.44,984.18C3208.24,959.193 3168.51,958.875 3171.75,984.18" style="fill:rgb(250,213,42);fill-rule:nonzero;"/>
        <path d="M5758.03,3192.93C5645.52,2888.45 5530.73,2584.8 5413.64,2282.06C5380.57,2196.57 5347.32,2111.15 5313.89,2025.8C5304.68,2002.28 5266.28,2012.51 5275.61,2036.35C5394.01,2338.66 5510.16,2641.86 5623.98,2945.92C5656.09,3031.7 5688.01,3117.57 5719.76,3203.48C5728.54,3227.24 5766.91,3216.97 5758.03,3192.93" style="fill:rgb(63,169,56);fill-rule:nonzero;"/>
        <path d="M5723.77,3206.37C5723.72,3206.86 5723.66,3207.34 5723.61,3207.82C5728.47,3201.44 5733.32,3195.06 5738.18,3188.68L5736.07,3189.11C5742.51,3190.82 5748.94,3192.52 5755.38,3194.22C5754.86,3193.8 5754.35,3193.39 5753.83,3192.98C5755.53,3199.42 5757.23,3205.85 5758.93,3212.29C5759.31,3211.28 5759.68,3210.28 5760.06,3209.27C5757.01,3213.23 5753.97,3217.18 5750.94,3221.14C5768.4,3208.77 5788.4,3199.05 5806.65,3187.79C5836.27,3169.51 5865.65,3150.82 5894.98,3132.07C5977.12,3079.53 6058.8,3026.25 6140.44,2972.94C6320.08,2855.63 6499.12,2737.36 6679.61,2621.36C6735.04,2585.74 6790.1,2548 6848.19,2516.77C6870.69,2504.67 6850.67,2470.4 6828.16,2482.5C6777.78,2509.59 6729.92,2542.03 6681.8,2572.84C6598.45,2626.2 6515.55,2680.3 6432.69,2734.42C6252.35,2852.22 6072.61,2971.01 5891.3,3087.32C5857.48,3109.01 5823.62,3130.63 5789.46,3151.77C5777.45,3159.2 5765.41,3166.58 5753.24,3173.74C5740.23,3181.4 5726.29,3186.61 5720.66,3201.74C5718.46,3207.67 5720.74,3217.05 5725.77,3221.05C5733.26,3227.01 5739.16,3228.91 5748.73,3226.95C5757.94,3225.07 5762.36,3216.18 5763.3,3207.82C5763.35,3207.34 5763.4,3206.86 5763.46,3206.37C5766.3,3181.03 5726.59,3181.23 5723.77,3206.37" style="fill:rgb(63,169,56);fill-rule:nonzero;"/>
        <path d="M5742.02,3183.11C5503.39,3397.74 5273.2,3621.71 5052.28,3854.53C4994.72,3915.19 4939.88,3985.63 4865.21,4026.03C4842.74,4038.19 4862.75,4072.47 4885.24,4060.3C4950.23,4025.14 4999.09,3968.75 5049.06,3915.68C5105.41,3855.85 5162.37,3796.58 5219.93,3737.9C5333.19,3622.43 5448.76,3509.22 5566.55,3398.37C5633.68,3335.2 5701.55,3272.82 5770.08,3211.17C5789.11,3194.05 5760.97,3166.06 5742.02,3183.11" style="fill:rgb(63,169,56);fill-rule:nonzero;"/>
        <path d="M5737.68,3182.64C5617.74,3161.91 5514.13,3093.69 5404.56,3044.86C5290.67,2994.11 5172.11,2954.79 5050.5,2927.28C5025.63,2921.65 5015.01,2959.9 5039.95,2965.55C5162.83,2993.35 5283.08,3032.89 5397.78,3085.1C5505.68,3134.22 5608.58,3200.42 5727.12,3220.91C5752.11,3225.22 5762.83,3186.99 5737.68,3182.64" style="fill:rgb(63,169,56);fill-rule:nonzero;"/>
        <path d="M6799.89,2331.71C6801.87,2362.36 6804.49,2392.97 6807.98,2423.49C6811.12,2451.06 6811.65,2483.22 6820.01,2509.72C6827.18,2532.43 6849.42,2536.06 6870.14,2532.5C6900.01,2527.35 6928.69,2516.64 6958.25,2510.08C6972.87,2506.84 6987.49,2504.63 7002.5,2504.78C7015.53,2504.91 7029.08,2508.89 7041.94,2505.71C7063.74,2500.32 7072.26,2479.98 7071.82,2459.13C7071.24,2431.71 7063.76,2402.87 7058.15,2376.12C7051.73,2345.43 7043.88,2315.09 7034.91,2285.05C7031.95,2275.1 7020.91,2267.85 7010.5,2271.19C6954.32,2289.26 6895.19,2323.74 6835.02,2303.4C6810.77,2295.2 6800.36,2333.52 6824.47,2341.67C6892.82,2364.77 6957.16,2330 7021.06,2309.47C7012.92,2304.84 7004.78,2300.22 6996.64,2295.6C7009.54,2338.85 7020.04,2382.74 7027.58,2427.24C7029.24,2437.01 7033.07,2449.3 7032.14,2459.13C7031.69,2463.82 7033.28,2464.74 7029.43,2466.79C7025.58,2468.84 7017.63,2465.85 7013.2,2465.52C6992.46,2463.97 6971.5,2466.75 6951.22,2471.03C6931.04,2475.28 6911.32,2481.43 6891.41,2486.74C6880.91,2489.55 6870.31,2492.33 6859.59,2494.23C6850.61,2495.81 6858.16,2495.59 6856.72,2490.56C6855.34,2485.78 6855.14,2480.28 6854.42,2475.36C6847.42,2427.71 6842.67,2379.76 6839.58,2331.71C6837.95,2306.34 6798.25,2306.16 6799.89,2331.71" style="fill:rgb(63,169,56);fill-rule:nonzero;"/>
        <path d="M5857.51,2188.18C5869.07,2245.32 5880.63,2302.47 5892.19,2359.62C5894.15,2369.33 5907.12,2377.27 5916.61,2373.48C5969.18,2352.5 6026.27,2356.97 6081.4,2349.21C6100.93,2346.46 6140.26,2343.65 6151.56,2324.31C6157.82,2313.6 6152.3,2300.25 6149.26,2289.59L6136.52,2245.03C6128.05,2215.43 6120.84,2185.1 6111.03,2155.92C6102.19,2129.64 6083.47,2128.43 6058.64,2131.75C5995.4,2140.22 5932.17,2148.68 5868.92,2157.14C5843.98,2160.48 5843.65,2200.21 5868.92,2196.83L6051.05,2172.46C6056.66,2171.71 6069.18,2167.41 6073.82,2169.41C6073.47,2168.43 6073.11,2167.45 6072.76,2166.47C6074.18,2171.42 6075.59,2176.37 6077.01,2181.32C6081.26,2196.18 6085.5,2211.03 6089.75,2225.88C6093.64,2239.49 6097.54,2253.11 6101.43,2266.72C6105.46,2280.79 6114.4,2299.68 6114.58,2314.29C6117.86,2308.58 6121.14,2302.87 6124.41,2297.16C6110.62,2306.53 6088.17,2308.65 6072.03,2310.78C6052.78,2313.31 6033.32,2314.2 6013.96,2315.49C5977.29,2317.95 5940.46,2321.48 5906.05,2335.21C5914.19,2339.83 5922.32,2344.45 5930.46,2349.07C5918.9,2291.92 5907.34,2234.77 5895.78,2177.63C5890.71,2152.61 5852.45,2163.2 5857.51,2188.18" style="fill:rgb(63,169,56);fill-rule:nonzero;"/>
        <path d="M5003.96,2867.92C5017.83,2919.41 5025.04,2971.64 5025.25,3024.97C5033.63,3018.59 5042,3012.22 5050.37,3005.84C5004.37,2999.37 4959.17,3002.83 4913.15,3007.28C4890.34,3009.49 4867.5,3011.67 4844.57,3012.18C4840.77,3012.29 4836.96,3012.34 4833.15,3012.32C4835.64,3013.61 4838.14,3014.9 4840.63,3016.19C4841.39,3015.85 4839.97,3002.53 4839.9,3001.12C4839.28,2988.55 4838.67,2975.99 4838.05,2963.42C4836.95,2940.8 4835.76,2918.19 4834.74,2895.57C4834.3,2885.64 4831.78,2878.1 4842.89,2875.56C4853.23,2873.21 4865.73,2875.38 4876.34,2875.49C4924.75,2875.99 4973.15,2876.48 5021.57,2876.98C5047.11,2877.24 5047.13,2837.56 5021.57,2837.29C4962.67,2836.69 4902.2,2832.01 4843.44,2835.74C4780.81,2839.72 4795.45,2903.68 4797.63,2948.34C4798.37,2963.42 4799.1,2978.5 4799.84,2993.58C4800.41,3005.14 4798.89,3019.76 4802.31,3030.86C4809.85,3055.32 4834.95,3052.41 4856,3051.49C4917.1,3048.81 4978.65,3035.51 5039.82,3044.11C5052.28,3045.86 5065,3039.19 5064.94,3024.97C5064.71,2968.27 5056.97,2912.11 5042.23,2857.37C5035.6,2832.73 4997.3,2843.19 5003.96,2867.92" style="fill:rgb(63,169,56);fill-rule:nonzero;"/>
        <path d="M6219.02,4111.03C6218.67,4083.04 6216.72,4055.21 6213,4027.45C6211.25,4014.37 6209.2,4001.32 6206.71,3988.36C6205.07,3979.84 6196.05,3958.5 6199.25,3950.51C6196.21,3954.46 6193.17,3958.41 6190.13,3962.36C6196.68,3957.36 6216.12,3960.24 6224.31,3960.08C6235.75,3959.86 6247.19,3959.64 6258.63,3959.42C6282.79,3958.96 6306.95,3958.49 6331.11,3958.03C6378.83,3957.12 6426.81,3954.71 6474.44,3958.51L6454.6,3938.67C6456.9,3967.29 6459.19,3995.92 6461.48,4024.54C6463.57,4050.64 6469.61,4079.63 6467.48,4105.69L6473.29,4091.66C6472.27,4092.47 6471.25,4093.27 6470.23,4094.08C6474.91,4092.14 6479.59,4090.2 6484.26,4088.27C6442.78,4093.65 6398.98,4090.94 6357.1,4093.25C6313.67,4095.65 6270.3,4098.98 6227.01,4103.1C6201.8,4105.49 6201.55,4145.2 6227.01,4142.78C6307.25,4135.16 6387.74,4130.38 6468.33,4128.74C6481.63,4128.48 6496.72,4128.81 6504.46,4115.71C6512.45,4102.19 6505.47,4078.2 6504.3,4063.57C6500.96,4021.94 6497.62,3980.31 6494.29,3938.67C6493.38,3927.31 6485.9,3919.75 6474.44,3918.83C6386.76,3911.82 6296.92,3919 6209.05,3920.68C6193.6,3920.98 6175.07,3919.46 6164.53,3933.2C6154.41,3946.41 6160.56,3962.72 6163.87,3977.18C6173.94,4021.19 6178.77,4065.92 6179.33,4111.03C6179.65,4136.56 6219.33,4136.62 6219.02,4111.03" style="fill:rgb(63,169,56);fill-rule:nonzero;"/>
        <path d="M4896.53,4020.63C4813.15,4028.1 4730.03,4032.24 4646.3,4029.36C4629.72,4028.79 4623.91,4045.32 4628.86,4057.22C4627.24,4094.34 4628.74,4131.33 4633.59,4168.18C4636.83,4192.78 4636.17,4235.95 4665.66,4245.12C4680.14,4249.62 4697.79,4246.51 4712.77,4246.2C4733.27,4245.78 4753.77,4245.37 4774.27,4244.95C4812.7,4244.16 4851.15,4243.38 4889.58,4242.59C4899.49,4242.39 4910.53,4233.63 4909.42,4222.75C4903.42,4163.6 4905.19,4104.29 4915.67,4045.75C4917.65,4034.7 4911.03,4020.56 4898.16,4020.55C4897.63,4020.55 4897.09,4020.58 4896.53,4020.63ZM4873.07,4062.33C4866.53,4109.11 4864.7,4156.18 4868.06,4203.34C4812.45,4204.48 4756.84,4205.61 4701.23,4206.75C4697.39,4206.83 4693.55,4206.91 4689.7,4206.98C4684.41,4204.59 4681.72,4205.3 4681.63,4209.1C4681.26,4212.44 4680.79,4211.73 4680.23,4206.97C4679.45,4203.32 4678.71,4199.66 4678.02,4196C4675.06,4180.65 4672.69,4165.23 4671.07,4149.69C4668.29,4123.06 4667.42,4096.36 4668.11,4069.64C4679.06,4069.86 4689.99,4069.97 4700.92,4069.97C4758.41,4069.97 4815.69,4067.02 4873.07,4062.33Z" style="fill:url(#_Linear4);fill-rule:nonzero;"/>
        <path d="M2736.88,2140C2534.91,2343.77 2339.3,2553.82 2150.67,2770.01C2097.38,2831.08 2044.66,2892.64 1992.48,2954.66C1976.13,2974.08 2004.07,3002.3 2020.54,2982.72C2205.08,2763.44 2396.53,2550 2594.65,2342.9C2650.89,2284.11 2707.68,2225.84 2764.94,2168.06C2782.94,2149.9 2754.9,2121.82 2736.88,2140" style="fill:rgb(239,124,22);fill-rule:nonzero;"/>
        <path d="M1386.51,2136.25C1546.78,2352.98 1712.27,2566.88 1863.72,2789.93C1906.02,2852.22 1946.7,2915.61 1984.98,2980.47C1997.94,3002.45 2032.27,2982.5 2019.25,2960.43C1883.7,2730.74 1718.92,2519.4 1560.59,2305.28C1513.98,2242.26 1467.38,2179.24 1420.78,2116.22C1405.75,2095.91 1371.29,2115.68 1386.51,2136.25" style="fill:rgb(239,124,22);fill-rule:nonzero;"/>
        <path d="M1998.7,2994.95C2134.36,2992.41 2270.01,2989.87 2405.66,2987.32C2540.43,2984.79 2676.09,2978.33 2810.47,2991.91C2835.86,2994.47 2835.68,2954.77 2810.47,2952.22C2676.09,2938.65 2540.43,2945.1 2405.66,2947.63C2270.01,2950.18 2134.36,2952.72 1998.7,2955.27C1973.19,2955.75 1973.11,2995.43 1998.7,2994.95" style="fill:rgb(239,124,22);fill-rule:nonzero;"/>
        <path d="M1971.07,2987.6C1911.92,3167.91 1856.48,3349.42 1804.78,3532.01C1797.8,3556.63 1836.09,3567.14 1843.04,3542.56C1894.75,3359.97 1950.19,3178.46 2009.34,2998.14C2017.32,2973.82 1979.01,2963.39 1971.07,2987.6" style="fill:rgb(239,124,22);fill-rule:nonzero;"/>
        <path d="M1959.53,2953.92C1721.22,3061.46 1487.9,3179.8 1260.43,3308.68C1238.21,3321.27 1258.19,3355.57 1280.46,3342.95C1507.93,3214.07 1741.25,3095.73 1979.56,2988.19C2002.8,2977.7 1982.65,2943.49 1959.53,2953.92" style="fill:rgb(239,124,22);fill-rule:nonzero;"/>
        <path d="M2816.12,2928.97C2814.7,2960.23 2815.12,2991.48 2817.88,3022.66C2819.83,3044.78 2818.61,3072.32 2845.98,3076.1C2876.23,3080.29 2909.13,3077.22 2939.71,3077.59C2962.45,3077.88 2996.95,3085.03 3015.98,3069.16C3034.87,3053.41 3026.86,3027.57 3021.54,3007.54C3013.91,2978.78 3008.88,2947.38 2998.22,2919.63C2987.66,2892.15 2965.33,2901.34 2942.98,2907.05C2912,2914.97 2880.56,2918.82 2848.62,2919.51C2823.11,2920.05 2823.02,2959.74 2848.62,2959.19C2870.84,2958.72 2892.88,2956.76 2914.84,2953.28C2925.48,2951.6 2936.08,2949.54 2946.57,2947.04C2951.22,2945.93 2955.85,2944.75 2960.47,2943.48C2962.96,2942.8 2977.86,2940.85 2971.26,2939.39C2967.31,2936.35 2963.35,2933.32 2959.4,2930.27C2966.16,2942.59 2968.03,2960.64 2971.61,2974.14C2975.5,2988.79 2979.39,3003.45 2983.27,3018.09C2983.83,3020.2 2990,3035.72 2988.32,3037.73C2985.86,3040.67 2974.16,3038.33 2970.07,3038.28C2953.63,3038.08 2937.18,3037.87 2920.73,3037.67C2905.55,3037.48 2890.37,3037.29 2875.18,3037.1C2872.48,3037.07 2852.19,3035.62 2857.84,3039.1C2860.5,3043.53 2860.77,3041.79 2858.64,3033.88C2858.24,3030.14 2857.88,3026.41 2857.57,3022.66C2854.81,2991.48 2854.39,2960.23 2855.81,2928.97C2856.97,2903.43 2817.28,2903.49 2816.12,2928.97" style="fill:rgb(239,124,22);fill-rule:nonzero;"/>
        <path d="M1677.06,3554.99L1807.32,3551.74C1849.12,3550.7 1893.85,3545.06 1935.36,3550.91C1930.74,3542.78 1926.12,3534.64 1921.51,3526.5C1914.9,3552.07 1911.48,3578.26 1910.6,3604.64C1910.19,3616.94 1910.34,3629.27 1910.78,3641.57C1911.14,3651.44 1916.05,3670.45 1912.4,3679.29C1915.44,3675.33 1918.48,3671.38 1921.52,3667.43C1915.32,3670.99 1899.63,3669.08 1892.45,3669.57C1882,3670.29 1871.53,3670.97 1861.07,3671.61C1840.14,3672.89 1819.2,3674.03 1798.25,3675.01C1777.3,3676 1756.34,3676.84 1735.38,3677.54C1724.89,3677.88 1714.41,3678.19 1703.92,3678.46C1696.07,3678.67 1685.23,3680.84 1677.72,3678.36C1681.67,3681.4 1685.62,3684.44 1689.58,3687.48C1683.77,3679.76 1687.83,3657.82 1688.35,3648.83C1689.11,3635.39 1690.58,3622.01 1692.18,3608.65C1695.38,3581.86 1699.01,3555.2 1699.7,3528.18C1700.35,3502.64 1660.66,3502.65 1660.01,3528.18C1659.29,3556.43 1655.35,3584.29 1652.06,3612.31C1648.98,3638.53 1644.44,3668.07 1649.61,3694.3C1654.77,3720.47 1678.55,3718.79 1699.99,3718.25C1730.14,3717.49 1760.27,3716.43 1790.39,3715.07C1819.2,3713.76 1847.99,3712.17 1876.77,3710.3C1896.78,3709.01 1935.92,3714.35 1948.67,3694.58C1953.96,3686.39 1952.41,3676.53 1951.82,3667.41C1950.94,3653.89 1950.26,3640.34 1950.1,3626.79C1949.74,3596.38 1952.16,3566.56 1959.78,3537.05C1962.2,3527.68 1956.7,3514.16 1945.92,3512.64C1902.89,3506.58 1858.53,3510.78 1815.22,3511.86L1677.06,3515.3C1651.57,3515.93 1651.47,3555.62 1677.06,3554.99" style="fill:rgb(239,124,22);fill-rule:nonzero;"/>
        <path d="M1222.47,3249.08C1228.89,3327.71 1235.31,3406.36 1241.73,3484.99C1248.34,3478.38 1254.96,3471.76 1261.57,3465.15C1181.15,3464.91 1100.81,3460.46 1020.9,3451.38C1014.52,3450.65 998.362,3451.7 993.21,3447.64C986.967,3442.74 987.789,3431.36 986.721,3424.01C984.074,3405.79 981.689,3387.53 979.546,3369.24C977.2,3349.2 975.133,3329.12 973.347,3309.02C972.454,3298.97 971.632,3288.91 970.882,3278.85C970.382,3272.16 967.457,3260.66 969.977,3254.43C966.937,3258.39 963.901,3262.34 960.861,3266.29C956.666,3268.68 968.862,3265.85 971.017,3265.76C977.446,3265.5 983.88,3265.23 990.309,3264.96C1001.89,3264.48 1013.46,3264 1025.04,3263.53C1049.47,3262.51 1073.91,3261.5 1098.35,3260.48C1147.23,3258.46 1196.1,3256.43 1244.98,3254.41C1270.43,3253.35 1270.56,3213.66 1244.98,3214.72C1167.81,3217.92 1090.63,3221.12 1013.46,3224.31C994.325,3225.11 973.549,3223.73 954.693,3227.12C943.18,3229.18 933.377,3234.86 930.357,3247.21C926.611,3262.55 931.393,3282.17 932.691,3297.71C934.262,3316.56 936.084,3335.39 938.152,3354.2C940.085,3371.75 942.248,3389.28 944.589,3406.79C946.899,3424.07 947.137,3444.23 953.404,3460.59C964.945,3490.72 1001.85,3488.98 1028.63,3491.93C1105.99,3500.44 1183.75,3504.61 1261.57,3504.84C1271.65,3504.87 1282.29,3495.7 1281.41,3484.99C1275,3406.36 1268.57,3327.71 1262.16,3249.08C1260.09,3223.8 1220.38,3223.58 1222.47,3249.08" style="fill:rgb(239,124,22);fill-rule:nonzero;"/>
        <path d="M1188.46,2132.91C1298.07,2135.23 1407.67,2137.55 1517.28,2139.87C1527.32,2140.09 1538.03,2130.59 1537.12,2120.03L1518.75,1908.44C1517.7,1896.33 1506.83,1884.97 1493.63,1889.31C1452.87,1902.68 1409.59,1899.01 1367.32,1900C1320.95,1901.1 1274.64,1904.35 1228.57,1909.75C1211.98,1911.7 1187.97,1910.58 1173.98,1920.71C1157.72,1932.48 1161.73,1954.01 1162.4,1971.4C1164.14,2016.76 1166.32,2062.09 1168.87,2107.41C1170.3,2132.81 1209.99,2132.97 1208.56,2107.41C1206.29,2067.13 1204.32,2026.83 1202.68,1986.52C1202.29,1976.88 1203.38,1965.73 1201.52,1956.29C1202.26,1947.31 1201.54,1946.28 1199.38,1953.18C1205.27,1952.35 1211.17,1951.56 1217.07,1950.83C1236.24,1948.42 1255.45,1946.41 1274.7,1944.76C1314.51,1941.34 1354.43,1939.58 1394.38,1939.29C1431.43,1939.03 1468.58,1939.26 1504.18,1927.57C1495.8,1921.2 1487.43,1914.82 1479.06,1908.44L1497.43,2120.03C1504.04,2113.41 1510.66,2106.8 1517.28,2100.19C1407.67,2097.86 1298.07,2095.54 1188.46,2093.22C1162.91,2092.68 1162.91,2132.37 1188.46,2132.91" style="fill:rgb(239,124,22);fill-rule:nonzero;"/>
        <path d="M3414.67,3356.79C3560.53,3508.57 3716.96,3649.87 3882.49,3779.9C3902.35,3795.5 3930.63,3767.61 3910.55,3751.83C3745.02,3621.8 3588.59,3480.51 3442.74,3328.73C3425.01,3310.28 3396.96,3338.36 3414.67,3356.79" style="fill:rgb(177,24,127);fill-rule:nonzero;"/>
        <path d="M3926.84,3771.12C4129.46,3598.29 4326.77,3419.31 4518.4,3234.38C4536.82,3216.6 4508.73,3188.56 4490.34,3206.31C4298.71,3391.25 4101.4,3570.23 3898.78,3743.05C3879.31,3759.65 3907.5,3787.61 3926.84,3771.12" style="fill:rgb(177,24,127);fill-rule:nonzero;"/>
        <path d="M3891.24,3746.73C3614.07,3795.01 3336.9,3843.28 3059.73,3891.56C3034.61,3895.93 3045.26,3934.19 3070.28,3929.83C3347.45,3881.55 3624.62,3833.28 3901.79,3785C3926.91,3780.63 3916.26,3742.37 3891.24,3746.73" style="fill:rgb(177,24,127);fill-rule:nonzero;"/>
        <path d="M3894.19,3796.71C3998.18,3914.84 4096.85,4037.52 4189.67,4164.61C4204.59,4185.03 4239.04,4165.25 4223.94,4144.58C4129.13,4014.76 4028.47,3889.31 3922.25,3768.65C3905.35,3749.44 3877.36,3777.6 3894.19,3796.71" style="fill:rgb(177,24,127);fill-rule:nonzero;"/>
        <path d="M4428.04,3123.39C4431.62,3151.98 4433.94,3181.08 4438.85,3209.47C4443.26,3234.99 4458.59,3242.4 4483.26,3243C4539.64,3244.38 4596.46,3237.5 4651.43,3225.27C4662.8,3222.74 4666.76,3211.03 4665.28,3200.86C4661.39,3174.04 4657.5,3147.23 4653.61,3120.41C4650.55,3099.33 4649.74,3076.16 4624.76,3070.68C4612.79,3068.05 4599.56,3071.2 4587.56,3072.42C4573.35,3073.88 4559.15,3075.34 4544.95,3076.79C4515.25,3079.84 4485.55,3082.88 4455.86,3085.93C4430.7,3088.5 4430.43,3128.22 4455.86,3125.62C4503.63,3120.71 4551.4,3115.82 4599.18,3110.92C4601.98,3110.63 4611.64,3111.26 4613.67,3109.55C4617.44,3109.99 4617.54,3109.2 4613.99,3107.18C4611.06,3103.72 4610.44,3104.33 4612.15,3109.02C4609.97,3116.7 4615.81,3134.25 4616.93,3141.93C4620.29,3165.09 4623.65,3188.25 4627.01,3211.41C4631.63,3203.27 4636.25,3195.14 4640.87,3187C4598.81,3196.36 4556.23,3201.93 4513.14,3203.13C4503.35,3203.4 4492.97,3202.26 4483.26,3203.32C4478.48,3203.83 4473.99,3201.04 4478.31,3206.61C4476.27,3203.98 4476.71,3194.99 4476.28,3191.66C4473.35,3168.91 4470.58,3146.14 4467.73,3123.39C4464.6,3098.38 4424.87,3098.07 4428.04,3123.39" style="fill:rgb(177,24,127);fill-rule:nonzero;"/>
        <path d="M3031.95,3845.74C3039.16,3900.04 3041.87,3954.6 3040.06,4009.35C3048.43,4002.97 3056.81,3996.59 3065.18,3990.21C3029.38,3976.53 2991.74,3981.43 2954.45,3983.42C2934.78,3984.47 2917.3,3981.41 2898.06,3979.49C2888.63,3978.55 2893.68,3980.45 2892.18,3976.17C2890.57,3971.58 2892.1,3961.44 2892.08,3956.89C2892.02,3945.32 2891.96,3933.75 2891.89,3922.17C2891.83,3910.6 2891.77,3899.03 2891.71,3887.46C2891.67,3879.28 2895.11,3859.47 2891.54,3852.75C2892.35,3848.23 2891.72,3847.68 2889.62,3851.09C2886.56,3853.53 2887.19,3854.23 2891.48,3853.19C2895.44,3855.3 2905.36,3852.97 2910.31,3853.01C2921.61,3853.11 2932.9,3853.56 2944.16,3854.34C2987.99,3857.4 3031.91,3869.24 3075.09,3855.57C3099.35,3847.89 3088.99,3809.56 3064.54,3817.3C3037.07,3826 3009.17,3821.97 2981.14,3818.44C2952.65,3814.85 2923.98,3812.7 2895.25,3813.41C2876,3813.89 2857.1,3817.76 2852.66,3839.48C2847.41,3865.22 2852.07,3895.94 2852.21,3922.17C2852.28,3936.31 2852.35,3950.46 2852.43,3964.6C2852.48,3975.6 2851.17,3987.48 2856.45,3997.55C2865.99,4015.73 2892.16,4019.96 2910.68,4022.25C2958.54,4028.17 3008.36,4010.8 3054.63,4028.48C3067.2,4033.29 3079.36,4021.12 3079.75,4009.35C3081.56,3954.6 3078.85,3900.04 3071.64,3845.74C3068.33,3820.79 3028.6,3820.46 3031.95,3845.74" style="fill:rgb(177,24,127);fill-rule:nonzero;"/>
        <path d="M4171.78,4178.5C4231.48,4176.49 4291.17,4174.49 4350.87,4172.49C4344.5,4167.64 4338.12,4162.78 4331.74,4157.92C4336.99,4195.56 4342.24,4233.2 4347.49,4270.84C4348.46,4277.8 4350.38,4285.74 4350.43,4292.79C4356.46,4291.44 4356.16,4290.48 4349.54,4289.9C4344.88,4288.71 4340.19,4287.71 4335.45,4286.91C4319.53,4284.12 4303.35,4283.11 4287.2,4283.34C4253.08,4283.84 4219.31,4290.35 4185.21,4290.77C4173.37,4290.91 4168.88,4291.36 4163.82,4280.56C4160.72,4273.91 4161.49,4264.1 4160.77,4256.69C4158.76,4236.17 4158.12,4215.61 4158.39,4194.99C4158.72,4169.45 4119.03,4169.44 4118.7,4194.99C4118.36,4221.68 4119.74,4248.21 4123.16,4274.69C4125.88,4295.76 4130.85,4315.72 4151.88,4325.28C4170.91,4333.94 4194.26,4330.27 4214.36,4328.56C4239.82,4326.4 4265.23,4323.11 4290.82,4323.01C4303.42,4322.95 4316.02,4323.54 4328.43,4325.85C4337.87,4327.61 4347.59,4331.3 4357.31,4330.85C4376.09,4329.98 4389.29,4316.22 4390.13,4297.52C4391.11,4275.65 4384.58,4251.82 4381.56,4230.17C4377.71,4202.57 4373.86,4174.97 4370.01,4147.37C4368.86,4139.12 4358.73,4132.54 4350.87,4132.8C4291.17,4134.81 4231.48,4136.81 4171.78,4138.81C4146.31,4139.66 4146.2,4179.36 4171.78,4178.5" style="fill:rgb(177,24,127);fill-rule:nonzero;"/>
        <path d="M3904.89,3785.48C4032.22,3836.72 4159.54,3887.96 4286.87,3939.19C4406.75,3987.44 4527.13,4045.01 4654.5,4070.43C4679.45,4075.41 4690.12,4037.16 4665.06,4032.16C4537.68,4006.74 4417.31,3949.17 4297.42,3900.93C4170.09,3849.69 4042.76,3798.45 3915.44,3747.21C3891.74,3737.68 3881.45,3776.05 3904.89,3785.48" style="fill:rgb(177,24,127);fill-rule:nonzero;"/>
    </g>
    <defs>
        <linearGradient id="_Linear1" x1="0" y1="0" x2="1" y2="0" gradientUnits="userSpaceOnUse" gradientTransform="matrix(197.966,197.966,-197.966,197.966,2767.38,1971)"><stop offset="0" style="stop-color:rgb(227,49,29);stop-opacity:1"/><stop offset="0.15" style="stop-color:rgb(227,49,29);stop-opacity:1"/><stop offset="0.28" style="stop-color:rgb(239,124,22);stop-opacity:1"/><stop offset="0.57" style="stop-color:rgb(239,124,22);stop-opacity:1"/><stop offset="0.83" style="stop-color:rgb(250,213,42);stop-opacity:1"/><stop offset="1" style="stop-color:rgb(250,213,42);stop-opacity:1"/></linearGradient>
        <linearGradient id="_Linear2" x1="0" y1="0" x2="1" y2="0" gradientUnits="userSpaceOnUse" gradientTransform="matrix(248.339,0,0,248.339,5053.87,1933.75)"><stop offset="0" style="stop-color:rgb(250,213,42);stop-opacity:1"/><stop offset="0.17" style="stop-color:rgb(250,213,42);stop-opacity:1"/><stop offset="0.3" style="stop-color:rgb(33,109,180);stop-opacity:1"/><stop offset="0.58" style="stop-color:rgb(33,109,180);stop-opacity:1"/><stop offset="0.81" style="stop-color:rgb(63,170,56);stop-opacity:1"/><stop offset="1" style="stop-color:rgb(63,170,56);stop-opacity:1"/></linearGradient>
        <linearGradient id="_Linear3" x1="0" y1="0" x2="1" y2="0" gradientUnits="userSpaceOnUse" gradientTransform="matrix(0,-175.763,175.763,-0,3296.96,3338.97)"><stop offset="0" style="stop-color:rgb(178,24,127);stop-opacity:1"/><stop offset="0.32" style="stop-color:rgb(178,24,127);stop-opacity:1"/><stop offset="0.64" style="stop-color:rgb(250,213,42);stop-opacity:1"/><stop offset="1" style="stop-color:rgb(250,213,42);stop-opacity:1"/></linearGradient>
        <linearGradient id="_Linear4" x1="0" y1="0" x2="1" y2="0" gradientUnits="userSpaceOnUse" gradientTransform="matrix(257.404,0,0,257.404,4643.99,4134.04)"><stop offset="0" style="stop-color:rgb(178,24,127);stop-opacity:1"/><stop offset="0.26" style="stop-color:rgb(178,24,127);stop-opacity:1"/><stop offset="0.69" style="stop-color:rgb(63,170,56);stop-opacity:1"/><stop offset="1" style="stop-color:rgb(63,170,56);stop-opacity:1"/></linearGradient>
    </defs>
</svg>
