<?xml version="1.0" encoding="UTF-8" standalone="no"?>
<!DOCTYPE svg PUBLIC "-//W3C//DTD SVG 1.1//EN" "http://www.w3.org/Graphics/SVG/1.1/DTD/svg11.dtd">
<svg width="821px" height="1012px" version="1.1" xmlns="http://www.w3.org/2000/svg" xmlns:xlink="http://www.w3.org/1999/xlink" xml:space="preserve" xmlns:serif="http://www.serif.com/" style="fill-rule:evenodd;clip-rule:evenodd;stroke-linejoin:round;stroke-miterlimit:2;">
    <g id="Rucksack">
        <path d="M654.389,138.447C656.691,148.425 651.319,157.174 650.091,154.718C650.398,154.104 652.547,148.425 650.858,139.061C649.784,129.852 646.867,124.018 647.174,123.251C648.095,121.716 653.468,128.47 654.542,138.294L654.389,138.448L654.389,138.447Z" style="fill:rgb(43,42,41);fill-rule:nonzero;"/>
        <path d="M513.779,179.897C513.779,179.897 523.449,191.716 522.835,213.053C522.221,234.39 517.463,269.694 514.239,284.891C511.169,300.087 507.485,338.769 519.458,343.374C527.44,346.444 535.729,345.523 542.329,344.602C545.553,344.142 548.623,343.681 550.925,343.681C558.139,343.681 568.27,340.765 568.27,340.765C568.27,340.765 586.383,328.946 588.532,298.092C590.527,267.239 584.08,216.738 583.16,214.589C582.239,212.286 575.638,185.271 575.638,185.271C575.638,185.271 547.855,190.49 536.496,188.034C525.137,185.578 513.625,179.899 513.625,179.899L513.779,179.899L513.779,179.897Z" style="fill:rgb(204,204,255);fill-rule:nonzero;"/>
        <path d="M702.119,235.617C702.119,235.617 707.644,266.47 712.403,271.229C717.161,275.834 717.008,288.574 717.161,298.859C717.314,309.143 716.701,316.665 714.398,320.809C712.096,324.953 705.035,330.019 705.035,330.019L590.065,344.294C590.065,344.294 574.562,346.597 569.957,346.597C565.352,346.597 559.059,343.681 559.059,343.681C559.059,343.681 573.181,344.755 580.242,320.656C587.149,296.557 586.535,254.958 586.535,254.958L583.312,223.03C583.312,223.03 582.237,236.077 594.978,237.919C607.718,239.761 637.344,238.993 637.344,238.993C637.344,238.993 639.032,261.404 650.852,264.013C662.671,266.623 673.109,264.781 673.109,264.781C673.109,264.781 680.937,257.72 680.477,252.041C680.016,246.362 678.481,237.305 678.481,237.305L695.212,237.919L702.273,235.923L702.12,235.616L702.119,235.617Z" style="fill:rgb(153,153,255);fill-rule:nonzero;"/>
        <path d="M541.409,124.477C541.409,124.477 597.283,113.732 612.172,112.965C627.061,112.044 651.007,115.268 658.682,116.956C666.51,118.645 676.488,122.329 682.167,129.236C687.846,136.144 697.824,156.712 700.894,165.001C703.81,173.29 713.327,203.529 713.634,212.893C713.941,222.257 716.55,224.559 708.875,230.545C701.2,236.532 695.521,237.606 691.837,237.76C688,237.913 678.483,236.839 678.483,236.839L675.72,221.336L656.686,222.257C656.686,222.257 638.727,218.266 638.113,225.327C637.499,232.388 637.499,240.523 637.499,240.523C637.499,240.523 621.075,241.444 612.939,242.825C604.804,244.053 589.454,241.751 586.844,236.071C584.235,230.392 581.165,214.888 581.165,214.888C581.165,214.888 573.029,181.886 573.643,177.434C574.257,172.983 569.038,154.87 569.038,154.87C565.047,148.423 554.609,134.762 550.465,128.315L541.562,124.171L541.409,124.478L541.409,124.477Z" style="fill:rgb(255,0,0);fill-rule:nonzero;"/>
        <path d="M594.369,92.397C594.369,92.397 606.956,88.253 617.854,90.862C628.752,93.472 639.037,100.533 639.958,102.988C640.725,105.444 641.186,114.04 641.186,114.04L629.674,112.505C629.674,112.505 626.911,102.835 618.622,102.221C610.333,101.607 593.141,105.752 592.374,107.133C591.606,108.515 593.141,114.194 593.141,114.194L579.019,114.962C579.019,114.962 574.875,105.752 577.484,101.608C579.94,97.463 581.629,95.775 583.01,95.161C584.392,94.547 594.522,92.398 594.522,92.398L594.368,92.398L594.369,92.397Z" style="fill:rgb(222,151,28);fill-rule:nonzero;"/>
        <path d="M658.989,219.957C658.989,219.957 637.653,221.953 637.96,225.637C638.267,229.321 636.425,241.754 639.341,247.894C642.258,254.187 643.025,262.476 652.542,264.011C662.059,265.546 675.106,265.392 676.948,261.094C678.79,256.95 679.557,254.494 680.479,251.577C681.4,248.661 677.562,220.263 676.027,219.342C674.492,218.421 659.142,219.803 659.142,219.803L658.989,219.956L658.989,219.957Z" style="fill:rgb(235,212,110);fill-rule:nonzero;"/>
        <path d="M523.599,137.067C523.599,137.067 515.77,133.23 512.394,135.839C509.017,138.449 501.649,152.724 500.575,156.408C499.5,160.092 493.36,196.471 492.746,202.765C491.979,209.059 486.299,235.614 483.229,244.67C480.159,253.727 469.261,279.207 466.805,288.417C464.196,297.781 465.117,318.042 469.875,327.559C474.634,336.923 474.02,337.23 480.466,339.685C486.913,342.141 492.439,342.755 494.588,342.295C496.737,341.988 500.114,341.988 502.416,341.067C504.719,340.299 511.626,335.694 511.626,335.694L515.617,326.791L512.394,309.292C512.394,309.292 502.724,322.032 497.044,320.344C491.365,318.656 484.457,309.599 483.076,304.687C481.848,299.775 480.927,285.5 482.155,276.75C483.383,268.001 487.527,249.734 491.365,243.748C495.049,237.762 501.956,211.667 502.57,206.448C503.184,201.076 503.644,185.112 504.412,178.818C505.179,172.524 508.863,155.026 512.394,151.035C515.924,147.044 520.069,148.272 520.069,148.272L524.367,143.053L523.753,136.913L523.599,137.067L523.599,137.067Z" style="fill:rgb(255,153,204);fill-rule:nonzero;"/>
        <path d="M561.059,145.507C568.734,156.712 574.106,169.76 575.948,183.114C566.124,191.25 533.889,191.403 519.46,183.114C517.464,182.193 511.478,177.742 512.706,168.839C514.087,159.936 519.92,148.424 519.92,148.424L525.139,138.293C535.116,120.334 546.782,120.948 560.904,145.354L561.057,145.508L561.059,145.507Z" style="fill:rgb(122,92,40);fill-rule:nonzero;"/>
        <path d="M642.869,231.007C642.869,231.007 644.711,250.962 649.162,254.799C653.614,258.637 667.121,257.716 667.121,257.716C667.121,257.716 658.218,257.716 653.153,250.501C648.087,243.287 642.869,231.007 642.869,231.007L642.869,231.007Z" style="fill:rgb(254,254,254);fill-rule:nonzero;"/>
        <path d="M694.759,175.747C694.759,175.747 684.321,139.368 657.919,131.232C640.42,125.86 605.422,124.939 583.472,124.939C572.113,124.939 564.285,125.246 564.285,125.246C564.285,125.246 594.217,121.101 620.619,121.101C627.373,121.101 633.973,121.408 639.806,122.022C668.203,125.399 677.874,134.609 685.088,146.889C692.302,159.015 694.604,175.9 694.604,175.9L694.758,175.747L694.759,175.747Z" style="fill:rgb(255,176,97);fill-rule:nonzero;"/>
        <path d="M605.109,330.317C596.359,330.317 589.759,330.01 589.759,330.01C589.759,330.01 594.363,315.121 596.819,295.933C599.275,276.745 593.75,258.326 593.75,258.326C593.75,258.326 604.188,283.653 603.113,295.933C602.038,308.213 599.89,320.186 601.731,324.023C602.499,325.558 611.248,326.019 621.532,326.019C636.575,326.019 654.534,325.098 654.534,325.098C654.534,325.098 643.022,327.861 626.597,329.549C619.537,330.317 611.708,330.47 605.107,330.47L605.107,330.317L605.109,330.317Z" style="fill:rgb(213,221,255);fill-rule:nonzero;"/>
        <path d="M576.409,215.047L575.948,212.592C576.255,213.973 576.409,215.047 576.409,215.047ZM575.948,212.591C575.181,209.521 573.185,204.456 567.659,203.842C567.045,203.688 566.278,203.688 565.664,203.688C562.594,203.688 559.984,204.609 557.835,205.377C555.686,206.298 553.844,207.065 552.309,207.065C552.002,207.065 551.542,207.065 551.235,206.912C547.551,205.837 545.095,195.093 545.095,195.093C545.095,195.093 548.472,196.014 552.77,196.014C554.305,196.014 555.993,195.86 557.682,195.554C563.975,194.326 572.571,192.023 572.571,192.023L575.948,212.592L575.948,212.591Z" style="fill:rgb(243,245,255);fill-rule:nonzero;"/>
        <path d="M488.759,337.077C484.307,337.077 478.781,335.542 475.251,329.249C468.19,316.969 474.483,285.809 474.483,285.809C474.483,285.809 474.944,305.61 478.014,322.035C480.316,334.315 489.68,335.85 494.131,335.85C495.512,335.85 496.433,335.697 496.433,335.697C496.433,335.697 493.056,337.078 488.758,337.078L488.759,337.077Z" style="fill:rgb(255,213,241);fill-rule:nonzero;"/>
        <path d="M667.739,158.707C667.739,158.707 671.423,170.987 668.046,172.675C664.669,174.363 652.236,172.982 652.236,172.982C652.236,172.982 616.317,180.504 614.782,177.28C613.247,174.057 613.247,163.465 613.247,163.465C613.247,163.465 650.394,158.093 651.622,158.4C652.696,158.707 669.428,158.4 669.428,158.4L667.893,158.553L667.739,158.707Z" style="fill:rgb(240,131,127);fill-rule:nonzero;"/>
        <path d="M577.789,187.107C581.473,214.583 587.306,234.538 587.152,234.999C585.924,236.074 578.096,214.891 574.565,188.028C575.486,158.863 545.093,124.633 541.716,126.014C545.553,117.572 578.402,151.188 577.788,187.107L577.789,187.107Z" style="fill:rgb(53,49,47);fill-rule:nonzero;"/>
        <path d="M678.949,123.247C693.685,135.68 698.597,155.789 704.737,171.292C709.802,187.563 715.942,202.145 715.175,216.421C714.714,232.692 701.667,235.762 696.909,237.143C690.922,238.371 687.699,239.292 687.545,238.985C687.392,238.678 690.615,237.297 696.602,235.455C701.667,233.613 712.873,230.082 712.566,216.268C713.18,203.681 706.886,189.099 701.668,172.981C695.374,157.785 690.309,138.137 676.801,127.085C615.248,98.381 541.111,129.848 541.721,123.554C540.8,127.699 613.865,92.854 678.951,123.247L678.949,123.247Z" style="fill:rgb(53,49,47);fill-rule:nonzero;"/>
        <path d="M611.409,242.367C623.996,242.674 634.127,236.841 634.434,239.144C634.74,240.986 624.303,244.67 611.102,244.363C597.901,243.595 587.77,239.451 588.077,237.609C588.384,235.46 598.975,241.753 611.562,242.521L611.408,242.367L611.409,242.367Z" style="fill:rgb(53,49,47);fill-rule:nonzero;"/>
        <path d="M681.089,236.837C682.01,247.428 679.861,255.871 678.94,255.564C677.712,255.257 678.172,247.276 677.251,237.451C676.023,227.781 674.181,220.106 675.256,219.338C676.023,218.725 679.86,226.246 681.089,236.837Z" style="fill:rgb(53,49,47);fill-rule:nonzero;"/>
        <path d="M640.879,242.217C643.641,250.199 644.563,259.716 650.088,260.79C655.461,262.939 661.447,262.786 665.898,262.325C675.876,261.711 677.717,254.344 678.178,254.344C679.253,253.883 677.257,264.475 666.358,266.01C661.447,266.931 655.613,267.545 648.706,265.396C640.264,262.633 639.343,251.274 636.58,243.753C633.817,236.078 633.664,221.956 642.72,219.04C650.242,217.351 655.153,220.421 659.912,219.193C669.276,218.425 675.569,218.733 675.415,219.346C675.262,220.114 669.736,221.188 660.065,222.877C655.307,224.412 648.706,221.956 643.794,223.644C638.576,225.179 638.269,234.082 640.725,241.91L640.878,242.217L640.879,242.217Z" style="fill:rgb(53,49,47);fill-rule:nonzero;"/>
        <path d="M666.969,167.617C667.583,157.026 660.982,161.17 652.694,161.324C644.865,162.245 637.805,163.166 631.818,163.78C619.845,165.161 612.17,164.394 612.17,163.626C612.17,162.552 619.538,161.631 631.204,159.175C637.036,157.947 644.251,156.565 652.08,155.337C655.764,154.723 659.908,153.342 664.82,153.495C666.969,153.649 671.727,154.263 672.495,159.175C673.262,161.784 672.495,169.766 671.881,171.915C670.346,176.827 670.192,176.059 667.89,177.594C665.741,179.129 662.21,177.748 660.061,177.748C655.763,177.441 651.772,177.441 647.628,177.134C639.493,176.673 632.892,175.752 626.906,177.134C621.227,177.441 615.087,180.05 612.477,174.064C612.017,170.073 612.17,167.617 612.477,167.617C612.938,167.617 613.398,169.612 614.473,173.603C614.319,174.831 620.92,174.217 626.139,172.529C631.972,170.533 639.8,170.84 647.475,170.994C653.001,170.073 666.048,178.055 666.509,167.617L666.969,167.617L666.969,167.617Z" style="fill:rgb(53,49,47);fill-rule:nonzero;"/>
        <path d="M607.719,93.937C596.36,95.012 581.931,95.165 579.475,101.459C577.019,108.213 579.781,112.971 579.014,113.125C579.014,113.432 574.87,108.98 577.019,100.691C581.623,91.327 595.439,92.095 607.719,90.56C620.613,90.713 633.2,93.783 638.726,100.844C643.637,108.212 640.261,113.584 640.568,113.431C639.34,113.584 641.335,108.212 636.577,102.379C631.511,96.853 619.999,94.243 607.719,94.09L607.719,93.936L607.719,93.937Z" style="fill:rgb(53,49,47);fill-rule:nonzero;"/>
        <path d="M609.099,104.217C602.345,104.217 595.438,105.445 592.675,108.208C590.679,111.278 594.977,113.581 593.903,113.734C594.67,113.734 589.298,112.66 591.293,107.441C594.67,103.45 601.731,102.375 608.945,102.222C625.062,100.226 632.123,113.12 630.895,112.66C630.435,113.274 624.141,102.222 608.791,104.064L609.098,104.218L609.099,104.217Z" style="fill:rgb(53,49,47);fill-rule:nonzero;"/>
        <path d="M589.759,280.437C588.531,299.778 585.921,317.584 579.628,328.943C572.72,339.227 567.041,342.911 566.734,342.604C565.966,341.837 571.185,336.618 576.865,326.64C581.623,316.509 583.925,298.857 585,280.13C585.921,261.25 583.465,244.518 581.162,232.085C578.86,219.345 581.469,211.056 581.93,211.516C582.697,211.823 581.47,219.345 584.386,231.317C587.456,243.136 590.679,260.942 589.758,280.59L589.758,280.437L589.759,280.437Z" style="fill:rgb(53,49,47);fill-rule:nonzero;"/>
        <path d="M518.849,287.187C516.393,302.69 512.248,316.659 515.165,327.557C518.849,337.995 527.138,343.828 534.966,343.367C550.623,342.293 561.982,341.372 561.675,343.521C561.214,343.981 552.465,347.051 534.966,349.814C526.216,351.503 513.783,345.056 508.564,330.473C504.266,315.123 509.331,299.927 511.327,285.651C515.318,255.565 521.304,227.628 522.839,208.901C523.299,199.385 519.462,193.398 517.313,187.872C515.164,182.5 515.778,178.663 516.085,178.816C516.852,178.816 517.159,181.732 519.922,186.03C522.378,190.021 528.058,197.389 528.211,208.594C527.751,230.084 522.839,256.486 518.694,287.032L518.848,287.186L518.849,287.187Z" style="fill:rgb(53,49,47);fill-rule:nonzero;"/>
        <path d="M638.879,335.387C674.491,328.94 703.502,329.094 703.195,327.712C704.116,332.624 674.644,335.387 639.493,341.834C622.148,345.365 604.956,346.746 593.443,344.444C581.777,343.062 575.33,346.9 574.87,345.825C574.409,345.211 581.317,339.685 593.443,339.839C605.569,340.76 620.612,338.918 638.725,335.387L638.878,335.387L638.879,335.387Z" style="fill:rgb(53,49,47);fill-rule:nonzero;"/>
        <path d="M717.929,281.667C720.538,296.403 720.231,310.832 715.933,319.888C711.482,328.945 705.495,329.866 705.649,329.712C705.189,328.791 710.408,326.796 713.631,318.507C716.854,310.372 717.008,296.71 714.398,282.895C711.175,269.387 704.881,257.875 702.578,248.511C699.816,239.148 700.429,232.701 700.89,232.854C699.969,233.929 707.951,253.73 718.082,281.82L717.929,281.667L717.929,281.667Z" style="fill:rgb(53,49,47);fill-rule:nonzero;"/>
        <path d="M539.719,186.647C559.674,190.485 575.484,182.81 575.791,184.345C576.251,184.652 560.288,194.169 539.412,190.331C529.281,189.103 519.764,185.88 514.545,179.74C509.326,172.373 513.47,166.232 513.163,166.846C514.084,166.846 511.321,172.679 515.926,177.898C520.685,182.657 529.741,185.42 539.718,186.648L539.719,186.647Z" style="fill:rgb(53,49,47);fill-rule:nonzero;"/>
        <path d="M516.999,157.937C514.236,164.845 512.854,170.831 511.78,170.677C511.012,170.677 511.319,163.77 514.236,156.248C519.148,140.591 534.958,121.25 542.787,125.702C536.954,125.395 520.53,139.363 516.846,157.783L516.999,157.937L516.999,157.937Z" style="fill:rgb(53,49,47);fill-rule:nonzero;"/>
        <path d="M478.169,260.477C471.108,278.129 464.815,297.317 467.578,315.123C469.727,333.85 480.625,341.985 488.147,341.064C496.742,339.99 503.804,340.297 508.102,337.073C512.553,334.003 513.321,329.245 513.628,329.705C513.628,329.398 513.167,335.078 508.562,338.915C504.111,342.906 496.743,342.906 488.147,344.748C479.244,346.744 466.811,336.613 464.815,316.351C461.592,296.243 468.499,275.52 475.56,257.868C494.901,225.019 489.682,181.886 499.506,156.248C503.344,143.508 508.87,133.837 514.395,133.223C519.614,132.609 521.917,136.14 521.763,135.986C521.61,136.754 519.154,133.837 514.549,135.065C509.79,136.14 504.878,145.196 501.502,157.783C492.752,181.115 497.664,227.472 478.17,260.623L478.17,260.47L478.169,260.477Z" style="fill:rgb(53,49,47);fill-rule:nonzero;"/>
        <path d="M491.519,247.737C486.3,261.552 482.002,275.827 482.155,289.642C482.462,303.15 486.607,315.89 493.053,317.579C506.714,324.026 511.166,306.22 511.319,307.909C511.933,306.374 507.635,326.329 492.746,320.189C485.378,318.501 480.466,304.225 480.159,289.796C479.852,274.753 484.304,259.71 489.676,245.742C503.491,219.647 500.421,188.18 504.872,167.15C506.868,156.866 510.398,148.73 514.542,147.042C518.38,145.661 520.375,147.963 520.375,147.81C520.989,147.503 509.477,144.126 506.56,167.918C502.723,187.259 505.793,221.182 491.671,247.584L491.518,247.737L491.519,247.737Z" style="fill:rgb(53,49,47);fill-rule:nonzero;"/>
        <path d="M537.729,213.667C539.878,232.087 540.185,246.516 540.185,246.669C539.11,246.976 537.575,231.78 535.58,214.281C532.817,196.629 522.379,186.344 523.761,185.423C523.3,185.423 534.506,194.787 537.729,213.667Z" style="fill:rgb(53,49,47);fill-rule:nonzero;"/>
    </g>
    <g id="Pult">
        <path d="M746.264,623.807C744.576,631.328 742.58,640.692 744.883,648.213C652.937,638.696 560.223,635.78 467.973,635.319C344.103,634.551 219.923,637.621 96.203,646.064C81.774,646.985 67.345,648.213 53.07,649.287C51.381,649.441 49.232,650.515 49.079,649.287C48.772,646.831 48.311,644.529 48.004,642.073C47.39,638.542 46.93,635.012 46.469,631.482C46.469,631.175 46.316,631.021 46.009,630.868C145.63,625.342 245.249,621.044 345.029,617.667C422.239,615.057 499.449,612.908 576.659,612.755C628.695,612.601 683.029,610.606 734.459,619.355C738.757,620.123 743.362,620.89 747.66,622.579C747.046,622.886 746.585,623.193 746.432,623.807L746.278,623.807L746.264,623.807Z" style="fill:rgb(199,142,68);fill-rule:nonzero;"/>
        <path d="M676.724,723.577C659.532,719.586 640.959,719.739 623.46,719.125C591.072,718.204 558.683,718.511 526.295,719.125C447.089,720.507 367.885,723.73 288.675,727.414C246.309,729.41 203.944,731.712 161.575,734.015C160.961,733.708 160.04,733.861 159.119,734.168C146.532,734.936 133.792,735.55 121.205,736.317C115.833,736.624 110.614,736.931 105.241,737.238L104.32,737.238C104.32,737.085 104.167,736.778 104.167,736.471C103.706,734.475 103.246,732.326 102.785,730.331C96.645,703.469 90.659,676.606 84.519,649.591C193.809,641.455 303.719,638.693 413.159,638.079C504.951,637.618 597.049,639.46 688.689,646.368C688.689,672.002 685.619,699.172 676.87,723.424L676.717,723.577L676.724,723.577Z" style="fill:rgb(184,118,67);fill-rule:nonzero;"/>
        <path d="M83.606,663.407C83.606,663.407 650.936,617.357 687.776,684.129C687.776,684.129 692.995,658.188 690.693,644.373C690.693,644.373 344.553,627.642 81.913,647.75L83.601,663.253L83.601,663.406L83.606,663.407Z" style="fill:rgb(158,94,49);fill-rule:nonzero;"/>
        <path d="M145.773,807.387C147.462,823.351 149.15,839.315 150.685,855.279C150.992,858.349 157.286,886.593 144.852,880.146C138.252,876.769 138.098,865.257 136.717,859.27L126.125,811.839C120.752,787.893 115.534,763.947 110.161,740.001C110.161,740.001 110.161,739.847 110.007,739.847C119.524,739.233 129.041,738.773 138.558,738.159C140.861,761.184 143.317,784.362 145.773,807.387L145.773,807.387Z" style="fill:rgb(199,142,68);fill-rule:nonzero;"/>
        <path d="M139.48,736.777C139.48,736.777 165.421,889.657 149.611,881.067C149.611,881.067 134.415,760.107 128.275,737.697L139.481,736.776L139.48,736.777Z" style="fill:rgb(173,111,46);fill-rule:nonzero;"/>
        <path d="M670.284,727.107C663.07,770.701 656.008,814.601 646.799,857.887C646.185,861.11 645.418,864.18 644.65,867.404C644.343,868.478 643.269,868.785 642.348,869.553C635.747,873.851 631.45,868.785 630.989,862.799C630.068,850.519 633.752,837.165 635.44,825.192C640.506,791.729 647.106,755.657 640.199,722.042C640.199,722.042 640.199,721.888 640.045,721.888C650.943,722.349 661.842,723.577 672.28,725.879C671.359,726.186 670.438,726.493 670.285,727.107L670.284,727.107Z" style="fill:rgb(199,142,68);fill-rule:nonzero;"/>
        <path d="M672.124,725.877L648.485,867.707C648.485,867.707 634.67,875.842 631.907,870.163C628.991,864.33 642.345,871.851 644.647,860.953C646.949,850.054 663.067,755.043 656.159,721.573C656.159,721.573 669.206,721.726 672.276,725.871L672.123,725.871L672.124,725.877Z" style="fill:rgb(173,111,46);fill-rule:nonzero;"/>
        <path d="M182.614,770.237C183.382,778.065 183.689,786.047 182.154,793.876C180.772,800.937 174.479,803.853 173.251,796.485C169.567,776.53 166.036,756.575 162.353,736.774L177.089,735.853L177.089,736.007C179.545,747.366 181.387,758.725 182.461,770.237L182.615,770.237L182.614,770.237Z" style="fill:rgb(173,111,46);fill-rule:nonzero;"/>
        <path d="M613.634,751.357C613.174,757.343 612.406,763.33 610.871,769.009C608.722,776.837 602.275,770.083 601.968,766.553L599.205,721.424L614.401,721.424L614.401,721.577C614.708,731.555 614.555,741.532 613.787,751.356L613.634,751.356L613.634,751.357Z" style="fill:rgb(173,111,46);fill-rule:nonzero;"/>
        <path d="M746.264,623.807C744.422,632.096 742.12,642.687 745.65,650.669C746.725,650.055 747.646,649.287 748.72,648.673C655.546,638.696 561.45,635.933 467.97,635.319C344.1,634.552 219.92,637.622 96.2,646.064C81.771,646.985 67.342,648.213 53.067,649.288C51.379,649.441 49.23,650.516 49.076,649.288C48.769,646.832 48.309,644.529 48.002,642.073C47.388,638.543 46.927,635.012 46.467,631.482C46.16,629.794 41.708,630.868 42.015,632.71C42.936,639.004 43.857,645.45 44.932,651.744C45.085,652.512 46.313,652.512 46.927,652.512C168.647,641.921 291.297,638.697 413.327,638.083C522.157,637.469 631.297,640.232 739.667,650.67C742.123,650.977 744.733,651.13 747.189,651.437C747.956,651.437 750.873,650.823 750.259,649.442C746.728,641.613 749.031,631.329 750.873,623.347C751.333,621.505 746.728,622.119 746.421,623.807L746.268,623.807L746.264,623.807Z" style="fill:rgb(158,94,49);fill-rule:nonzero;"/>
        <path d="M79.769,650.047C86.523,679.826 93.277,709.605 99.877,739.383C100.031,740.15 101.259,740.304 101.873,740.15C217.153,733.089 332.583,727.41 447.863,723.726C495.908,722.191 544.107,721.117 592.153,721.424C619.476,721.577 649.869,719.889 676.731,726.796C677.652,727.103 679.801,726.796 680.108,725.568C689.625,700.394 693.002,672.457 692.848,645.748C692.848,643.599 688.396,644.52 688.396,646.209C688.55,672.611 685.326,700.394 675.809,725.261C676.884,724.8 678.112,724.493 679.186,724.033C661.227,719.428 641.579,719.581 623.005,718.967C590.617,718.046 558.228,718.353 525.84,718.967C446.634,720.349 367.43,723.572 288.22,727.256C232.346,729.866 176.47,732.782 120.75,736.159C115.378,736.466 110.159,736.773 104.786,737.08C103.865,737.08 103.098,737.234 102.177,737.234C104.326,737.08 104.326,738.769 103.712,736.313C103.251,734.317 102.791,732.168 102.33,730.173C96.19,703.004 90.05,675.988 83.91,648.819C83.45,646.977 78.998,648.205 79.459,650.047L79.769,650.047Z" style="fill:rgb(158,94,49);fill-rule:nonzero;"/>
        <path d="M105.71,741.077C111.543,767.325 117.376,793.42 123.209,819.669C126.586,835.019 130.117,850.522 133.493,865.872C134.875,872.012 135.642,881.836 143.471,883.524C152.834,885.673 157.746,878.458 156.825,870.323C155.443,856.355 153.908,842.386 152.527,828.571C149.457,798.485 146.233,768.399 143.163,738.16C143.163,737.546 143.01,737.085 143.01,736.471C142.856,734.629 138.405,735.704 138.558,737.699C141.014,760.877 143.317,784.209 145.773,807.387C147.461,823.351 149.15,839.315 150.685,855.279C150.992,858.349 157.285,886.593 144.852,880.146C138.251,876.769 138.098,865.257 136.716,859.27L126.124,811.839C120.752,787.893 115.533,763.947 110.16,740.001C109.7,738.159 105.248,739.234 105.709,741.229L105.709,741.076L105.71,741.077Z" style="fill:rgb(158,94,49);fill-rule:nonzero;"/>
        <path d="M157.594,736.007C159.897,748.747 162.199,761.641 164.502,774.382C166.037,783.285 165.73,797.1 172.33,804.161C174.94,806.924 179.391,805.849 181.847,803.393C187.68,797.407 187.68,787.736 187.68,780.061C187.526,765.018 184.917,749.515 181.54,734.932C181.079,733.09 176.628,734.318 177.088,736.16C179.544,747.519 181.386,758.878 182.461,770.39C183.228,778.219 183.535,786.2 182,794.029C180.619,801.09 174.326,804.007 173.098,796.639C169.414,776.07 165.576,755.501 161.893,734.932C161.586,733.09 157.134,734.164 157.441,736.16L157.595,736.006L157.594,736.007Z" style="fill:rgb(158,94,49);fill-rule:nonzero;"/>
        <path d="M594.754,722.047L596.596,751.519C597.21,760.268 595.829,767.79 602.122,774.39C611.179,783.753 616.09,765.947 617.011,760.268C619.16,747.221 619.16,733.559 618.7,720.358C618.7,718.976 614.248,719.897 614.248,721.586C614.555,731.563 614.402,741.541 613.634,751.365C613.174,757.351 612.406,763.338 610.871,769.017C608.722,776.845 602.275,770.091 601.968,766.561C601.047,751.365 600.126,736.168 599.052,720.818C598.898,719.436 594.447,720.357 594.6,722.046L594.754,722.046L594.754,722.047Z" style="fill:rgb(158,94,49);fill-rule:nonzero;"/>
        <path d="M670.284,727.107C663.07,770.701 656.008,814.601 646.799,857.887C646.185,861.11 645.418,864.18 644.65,867.404C644.343,868.478 643.269,868.785 642.348,869.553C635.747,873.851 631.45,868.785 630.989,862.799C630.068,850.519 633.752,837.165 635.44,825.192C640.506,791.729 647.106,755.657 640.199,722.042C640.045,720.967 635.44,722.042 635.747,723.27C643.729,761.798 634.366,802.936 628.686,841.16C627.458,849.449 622.7,866.18 630.221,872.781C634.673,876.618 645.417,871.246 648.641,867.715C650.483,865.72 650.637,859.58 651.251,857.124C652.632,851.138 653.707,844.998 654.935,839.011C658.005,823.354 660.768,807.544 663.531,791.733C667.368,769.936 671.052,748.139 674.736,726.342C674.889,725.114 670.591,725.882 670.284,727.11L670.284,727.107Z" style="fill:rgb(158,94,49);fill-rule:nonzero;"/>
        <path d="M88.518,446.047L42.775,633.927C315.235,615.661 551.475,612.13 753.475,623.796L621.465,453.256C445.095,444.046 267.495,441.744 88.365,446.195L88.519,446.041L88.518,446.047Z" style="fill:rgb(173,111,46);fill-rule:nonzero;"/>
        <path d="M95.119,450.047L50.758,625.807C315.088,608.769 547.328,607.541 743.348,618.285L618.398,456.655C447.398,448.059 268.878,445.91 95.118,450.055L95.119,450.047Z" style="fill:rgb(239,204,131);fill-rule:nonzero;"/>
    </g>
    <g id="Heft">
        <path d="M253.534,485.957C255.376,499.311 259.828,525.713 256.144,537.686L241.408,583.889C294.365,570.995 358.678,558.715 397.208,569.153L432.82,578.823L441.416,586.498C480.558,578.977 523.384,563.78 562.986,567.771L609.496,572.376L541.036,481.505C516.783,476.593 475.645,475.979 436.506,481.966L393.833,490.101C358.221,486.878 326.293,480.124 287.153,480.431L253.69,485.957L253.536,485.957L253.534,485.957Z" style="fill:rgb(230,230,230);fill-rule:nonzero;"/>
        <path d="M436.964,567.167C428.829,551.664 420.54,536.314 412.404,520.81C407.646,512.06 403.041,503.158 398.436,494.408C396.901,491.645 396.287,488.268 392.91,487.654C371.881,483.663 350.544,480.9 329.361,479.365C303.88,477.369 275.636,475.834 251.383,485.198C250.769,485.505 249.848,486.272 250.155,487.04C255.681,506.074 257.216,527.717 250.923,546.751C248.313,554.733 232.35,576.99 239.564,586.507C240.178,587.274 241.252,587.274 242.02,586.967C263.356,581.134 285.307,576.99 307.257,573.766C344.097,568.24 386.155,563.635 421.917,576.836C430.052,579.906 436.96,589.116 445.556,586.66C457.989,583.13 470.423,580.213 483.01,577.45C508.337,571.31 544.87,563.021 608.88,573.306C610.108,573.766 612.257,574.38 611.029,572.692C595.372,551.509 559.3,502.082 543.643,480.9C542.415,479.365 539.959,479.825 541.34,481.514C581.096,535.392 597.521,553.505 607.191,570.85C593.376,568.394 546.866,561.179 484.701,573.92C470.733,576.836 456.918,580.06 443.256,584.051C440.8,584.818 436.349,579.446 432.358,577.297C424.683,573.152 416.087,570.696 407.491,569.008C368.809,560.872 326.751,566.859 288.221,573.613C274.406,576.069 260.591,578.985 246.93,582.362C245.549,582.669 244.014,583.13 242.632,583.437C239.869,584.204 242.632,583.13 243.553,584.358C240.023,579.599 245.856,567.627 247.544,563.636C251.075,554.579 255.833,546.751 257.828,537.234C259.824,528.024 259.517,518.2 258.749,508.837C258.135,502.236 257.061,495.636 255.526,489.189C254.605,485.505 254.144,487.193 256.6,486.426C260.591,485.044 264.889,484.123 269.187,483.509C302.65,477.676 338.722,482.588 372.027,487.654L386.302,489.956C387.837,490.263 389.372,490.417 390.907,490.724C393.056,491.184 391.675,491.338 391.214,490.417C394.898,497.478 398.582,504.385 402.419,511.293C412.703,530.48 422.834,549.821 433.119,569.009C434.04,570.697 438.338,569.162 437.264,567.013L436.957,567.167L436.964,567.167Z" style="fill:rgb(131,138,140);fill-rule:nonzero;"/>
        <path d="M393.824,491.177C436.957,477.209 481.625,472.604 541.954,480.279C542.722,481.507 542.261,481.507 543.029,482.274C518.93,473.371 418.699,482.121 393.829,491.177L393.824,491.177Z" style="fill:rgb(131,138,140);fill-rule:nonzero;"/>
        <path d="M256.604,477.827C258.446,491.181 262.898,517.583 259.214,529.556L244.478,575.759C297.435,562.865 361.748,550.585 400.278,561.023L435.89,570.693L444.486,578.368C483.628,570.847 526.454,555.65 566.056,559.641L612.566,564.246L544.105,473.375C519.852,468.463 478.714,467.849 439.575,473.836L396.902,481.971C361.29,478.748 329.362,471.994 290.222,472.301L256.759,477.827L256.605,477.827L256.604,477.827Z" style="fill:rgb(230,230,230);fill-rule:nonzero;"/>
        <path d="M439.874,559.027C431.739,543.524 423.45,528.174 415.314,512.67C410.556,503.92 405.951,495.018 401.346,486.268C399.811,483.505 399.197,480.128 395.82,479.514C374.791,475.523 353.454,472.76 332.271,471.225C306.79,469.229 278.546,467.694 254.293,477.058C253.679,477.365 252.758,478.132 253.065,478.9C258.591,497.934 260.126,519.577 253.833,538.611C251.223,546.593 235.26,568.85 242.474,578.367C243.088,579.134 244.162,579.134 244.93,578.827C266.266,572.994 288.217,568.85 310.167,565.626C347.007,560.1 389.065,555.495 424.827,568.696C432.962,571.766 439.87,580.976 448.466,578.52C460.899,574.99 473.333,572.073 485.92,569.31C511.247,563.17 547.78,554.881 611.79,565.166C613.018,565.626 615.167,566.24 613.939,564.552C598.282,543.369 562.21,493.942 546.553,472.76C545.325,471.225 542.869,471.685 544.25,473.374C584.006,527.252 600.431,545.365 610.101,562.71C596.286,560.254 549.776,553.039 487.611,565.78C473.643,568.696 459.828,571.92 446.166,575.911C443.71,576.678 439.259,571.306 435.268,569.157C427.593,565.012 418.997,562.556 410.401,560.868C371.719,552.732 329.661,558.719 291.131,565.473C277.316,567.929 263.501,570.845 249.84,574.222C248.459,574.529 246.924,574.99 245.542,575.297C242.779,576.064 245.542,574.99 246.463,576.218C242.933,571.459 248.766,559.487 250.454,555.496C253.985,546.439 258.743,538.611 260.738,529.094C262.734,519.884 262.427,510.06 261.659,500.697C261.045,494.096 259.971,487.496 258.436,481.049C257.515,477.365 257.054,479.053 259.51,478.286C263.501,476.904 267.799,475.983 272.097,475.369C305.56,469.536 341.632,474.448 374.937,479.514L389.212,481.816C390.747,482.123 392.282,482.277 393.817,482.584C395.966,483.044 394.585,483.198 394.124,482.277C397.808,489.338 401.492,496.245 405.329,503.153C415.613,522.34 425.744,541.681 436.029,560.869C436.95,562.557 441.248,561.022 440.174,558.873L439.866,559.027L439.874,559.027Z" style="fill:rgb(131,138,140);fill-rule:nonzero;"/>
        <path d="M396.894,483.047C440.027,469.079 484.695,464.474 545.024,472.149C545.792,473.377 545.331,473.377 546.099,474.144C522,465.241 421.769,473.991 396.899,483.047L396.894,483.047Z" style="fill:rgb(131,138,140);fill-rule:nonzero;"/>
        <path d="M256.604,468.767C258.446,482.121 262.898,508.523 259.214,520.496L244.478,566.699C297.435,553.805 361.748,541.525 400.278,551.963L435.89,561.633L444.486,569.308C483.628,561.787 526.454,546.59 566.056,550.581L612.566,555.186L544.105,464.315C519.852,459.403 478.714,458.789 439.575,464.776L396.902,472.911C361.29,469.688 329.362,462.934 290.222,463.241L256.759,468.767L256.605,468.767L256.604,468.767Z" style="fill:rgb(235,237,232);fill-rule:nonzero;"/>
        <path d="M439.874,549.967C431.739,534.464 423.45,519.114 415.314,503.61C410.556,494.86 405.951,485.958 401.346,477.208C399.811,474.445 399.197,471.068 395.82,470.454C374.791,466.463 353.454,463.7 332.271,462.165C306.79,460.169 278.546,458.634 254.293,467.998C253.679,468.305 252.758,469.072 253.065,469.84C258.591,488.874 260.126,510.517 253.833,529.551C251.223,537.533 235.26,559.79 242.474,569.307C243.088,570.074 244.162,570.074 244.93,569.767C266.266,563.934 288.217,559.79 310.167,556.566C347.007,551.04 389.065,546.435 424.827,559.636C432.962,562.706 439.87,571.916 448.466,569.46C460.899,565.93 473.333,563.013 485.92,560.25C511.247,554.11 547.78,545.821 611.79,556.106C613.018,556.566 615.167,557.18 613.939,555.492C598.282,534.309 562.21,484.882 546.553,463.7C545.325,462.165 542.869,462.625 544.25,464.314C584.006,518.192 600.431,536.305 610.101,553.65C596.286,551.194 549.776,543.979 487.611,556.72C473.643,559.636 459.828,562.86 446.166,566.851C443.71,567.618 439.259,562.246 435.268,560.097C427.593,555.952 418.997,553.496 410.401,551.808C371.719,543.672 329.661,549.659 291.131,556.413C277.316,558.869 263.501,561.785 249.84,565.162C248.459,565.469 246.924,565.93 245.542,566.237C242.779,567.004 245.542,565.93 246.463,567.158C242.933,562.399 248.766,550.427 250.454,546.436C253.985,537.379 258.743,529.551 260.738,520.034C262.734,510.824 262.427,501 261.659,491.637C261.045,485.036 259.971,478.436 258.436,471.989C257.515,468.305 257.054,469.993 259.51,469.226C263.501,467.844 267.799,466.923 272.097,466.309C305.56,460.476 341.632,465.388 374.937,470.454L389.212,472.756C390.747,473.063 392.282,473.217 393.817,473.524C395.966,473.984 394.585,474.138 394.124,473.217C397.808,480.278 401.492,487.185 405.329,494.093C415.613,513.28 425.744,532.621 436.029,551.809C436.95,553.497 441.248,551.962 440.174,549.813L439.866,549.967L439.874,549.967Z" style="fill:rgb(131,138,140);fill-rule:nonzero;"/>
        <path d="M396.894,473.987C440.027,460.019 484.695,455.414 545.024,463.089C545.792,464.317 545.331,464.317 546.099,465.084C522,456.181 421.769,464.931 396.899,473.987L396.894,473.987Z" style="fill:rgb(131,138,140);fill-rule:nonzero;"/>
    </g>
    <g id="Füller">
        <path d="M177.704,489.187C177.704,489.187 159.131,482.893 160.052,494.559C161.127,506.071 178.779,551.507 188.142,553.656C197.659,555.805 205.794,534.776 177.551,489.34L177.705,489.187L177.704,489.187Z" style="fill:rgb(199,142,68);fill-rule:nonzero;"/>
        <path d="M169.564,478.137C164.806,481.36 162.196,483.97 163.424,489.496C165.42,498.706 168.336,507.762 171.56,516.512C175.704,527.717 186.756,556.268 203.334,552.124C215.46,549.207 201.492,519.736 198.882,513.749C194.584,503.618 186.449,472.151 170.331,477.677C168.489,478.291 168.95,480.286 170.792,479.672C183.532,475.221 192.128,506.381 195.659,514.67C197.347,518.815 210.395,552.431 199.957,549.975C185.375,546.598 177.853,524.187 173.555,512.061C171.252,505.614 169.257,499.167 167.568,492.567C165.88,486.12 165.112,483.664 171.713,479.213C173.555,477.985 170.792,477.064 169.564,477.985L169.564,478.139L169.564,478.137Z" style="fill:rgb(120,37,33);fill-rule:nonzero;"/>
        <path d="M181.074,533.087C181.688,530.631 182.763,528.328 184.144,526.179C185.372,524.184 186.907,522.342 189.056,521.421C192.28,519.886 196.271,522.802 198.573,524.798C199.494,525.565 202.564,524.337 201.49,523.416C196.271,518.965 190.131,517.276 184.452,521.881C181.075,524.644 178.926,529.249 177.851,533.393C177.544,534.621 180.768,534.161 181.075,533.086L181.074,533.087Z" style="fill:rgb(120,37,33);fill-rule:nonzero;"/>
        <path d="M197.044,544.137C199.347,548.742 201.496,553.347 203.798,557.952C204.412,559.333 207.636,558.412 207.022,557.031C204.719,552.426 202.57,547.821 200.268,543.216C199.654,541.834 196.43,542.755 197.044,544.137Z" style="fill:rgb(43,42,41);fill-rule:nonzero;"/>
    </g>
    <g id="Bleistift">
        <path d="M140.247,502.847C140.247,502.847 120.906,499.009 123.516,510.368C125.972,521.727 149.457,564.4 159.128,565.321C168.799,566.089 174.171,544.292 140.248,502.847L140.247,502.847Z" style="fill:rgb(199,142,68);fill-rule:nonzero;"/>
        <path d="M170.024,568.847L162.503,561.325L162.503,561.018C162.963,559.023 166.34,558.562 168.643,558.409C169.103,561.939 169.564,565.316 170.024,568.847L170.024,568.847Z" style="fill:rgb(227,25,83);fill-rule:nonzero;"/>
        <path d="M166.654,544.447C166.808,544.754 166.808,545.214 166.961,545.982L168.343,555.652C165.58,555.806 161.742,556.266 161.435,559.49L161.435,560.257L155.909,554.731C153.914,552.736 152.839,551.354 151.611,549.512C151.765,548.284 152.225,547.21 152.686,546.135C155.295,540.916 162.203,542.605 166.654,544.447L166.654,544.447Z" style="fill:rgb(248,211,172);fill-rule:nonzero;"/>
        <path d="M139.94,497.627C139.94,497.78 140.094,497.78 140.094,497.934C140.861,499.315 141.782,500.85 142.55,502.232C147.922,511.595 153.295,521.112 158.667,530.476C160.662,534.006 162.811,537.69 164.807,541.221C160.202,539.686 154.369,538.918 151.606,543.677C150.992,544.751 150.531,545.979 150.378,547.361C149.764,546.286 149.15,545.058 148.382,543.677C141.168,530.476 133.953,517.275 126.739,504.074C128.121,497.78 134.568,497.013 139.94,497.78L139.94,497.627Z" style="fill:rgb(204,204,255);fill-rule:nonzero;"/>
        <path d="M124.744,504.537C132.266,518.198 139.633,532.013 147.155,545.675C153.142,556.573 162.198,564.095 170.947,572.844C171.715,573.611 172.482,572.537 172.329,571.769C171.101,562.559 169.719,553.349 168.491,544.139C168.184,541.99 166.342,539.841 165.268,537.999L156.058,521.882C151.146,513.133 146.08,504.383 141.169,495.634C140.094,493.792 136.257,494.253 134.568,494.406C129.042,495.02 125.358,497.63 124.437,503.309C124.284,504.691 126.126,506.226 126.433,504.23C127.507,497.323 134.261,496.555 139.941,497.476C140.094,497.476 139.173,496.095 140.094,497.783C140.862,499.165 141.783,500.7 142.55,502.081C147.923,511.445 153.295,520.961 158.667,530.325C160.816,534.009 162.965,537.693 164.961,541.53C166.496,544.293 166.496,543.679 166.803,545.982C168.031,554.578 169.105,563.02 170.333,571.616C170.794,571.309 171.254,570.848 171.715,570.541L155.751,554.577C152.067,550.893 151.146,548.898 148.076,543.525C140.708,530.171 133.493,516.663 126.125,503.308C125.204,501.62 123.822,503.155 124.59,504.536L124.743,504.536L124.744,504.537Z" style="fill:rgb(143,41,48);fill-rule:nonzero;"/>
        <path d="M151.453,552.427C151.3,551.045 151.76,547.975 152.681,546.133C155.444,540.607 162.965,542.91 167.263,544.598C168.031,544.905 167.724,542.142 166.803,541.835C162.044,539.84 154.677,537.998 151.453,543.524C150.071,545.98 149.611,549.05 149.918,551.966C150.071,553.194 151.453,554.269 151.299,552.427L151.453,552.427L151.453,552.427Z" style="fill:rgb(143,41,48);fill-rule:nonzero;"/>
        <path d="M162.814,561.787C162.507,561.48 162.661,561.633 162.507,561.326C162.507,561.326 162.354,561.019 162.507,561.173C162.661,561.633 162.507,561.326 162.661,561.019C163.275,558.563 168.187,558.563 170.029,558.41C170.489,558.41 170.029,555.647 169.261,555.647C166.652,555.8 161.74,555.954 161.586,559.484C161.433,561.019 162.2,563.015 163.275,564.243C163.735,564.703 163.735,563.782 163.735,563.629C163.735,563.015 163.428,562.247 163.121,561.787L162.814,561.787L162.814,561.787Z" style="fill:rgb(143,41,48);fill-rule:nonzero;"/>
        <path d="M129.042,497.937L154.369,542.145C154.369,542.145 151.453,541.224 151.606,549.513L124.59,503.463L129.042,497.937L129.042,497.937Z" style="fill:rgb(153,153,255);fill-rule:nonzero;"/>
    </g>
</svg>
